<?xml version="1.0" standalone="no"?>
<!DOCTYPE svg PUBLIC "-//W3C//DTD SVG 20010904//EN"
 "http://www.w3.org/TR/2001/REC-SVG-20010904/DTD/svg10.dtd">
<svg version="1.0" xmlns="http://www.w3.org/2000/svg"
 width="1600.000000pt" height="1066.000000pt" viewBox="0 0 1600.000000 1066.000000"
 preserveAspectRatio="xMidYMid meet">

<g transform="translate(0.000000,1066.000000) scale(0.100000,-0.100000)"
fill="#000000" stroke="none">
<path d="M0 5330 l0 -5330 8000 0 8000 0 0 5330 0 5330 -4122 -2 -4121 -3 -14
-59 c-7 -32 -22 -73 -32 -90 -10 -17 -21 -52 -24 -78 -4 -26 -20 -87 -36 -136
-16 -49 -37 -126 -46 -173 -9 -46 -21 -89 -26 -95 -5 -7 -23 -61 -38 -120 -16
-60 -34 -122 -40 -139 -20 -59 -51 -171 -51 -186 0 -8 -7 -25 -17 -38 -9 -13
-22 -49 -29 -80 -24 -105 -33 -135 -52 -175 -11 -23 -27 -75 -37 -116 -9 -41
-23 -92 -31 -113 -8 -20 -14 -40 -14 -43 0 -2 111 -4 248 -3 310 3 332 -2 502
-117 61 -41 285 -251 341 -319 13 -16 40 -43 59 -59 19 -15 106 -98 193 -183
86 -84 157 -152 157 -149 0 2 15 -10 34 -27 43 -41 92 -83 147 -127 24 -19
101 -93 170 -163 70 -70 135 -130 145 -132 17 -3 50 -14 109 -35 23 -8 78 -34
118 -56 16 -9 31 -22 34 -30 3 -8 12 -14 20 -14 8 0 12 -4 9 -8 -3 -5 4 -23
14 -40 12 -19 15 -32 8 -32 -6 0 -5 -7 5 -18 19 -21 18 -105 -1 -124 -18 -18
-15 -41 4 -34 13 5 15 0 11 -27 -2 -18 -10 -44 -17 -56 -6 -13 -9 -37 -6 -53
3 -17 2 -27 -4 -23 -9 6 -6 -53 4 -63 3 -3 9 10 13 28 5 29 7 31 14 15 6 -17
8 -15 9 10 2 30 2 30 10 5 4 -14 8 -41 8 -60 0 -29 -1 -31 -7 -11 -7 25 -31
42 -31 21 0 -6 5 -8 10 -5 6 3 10 -5 10 -19 0 -14 4 -27 8 -30 12 -7 12 -156
1 -156 -5 0 -9 -7 -9 -16 0 -8 -4 -13 -8 -10 -4 2 -9 -10 -10 -27 -2 -17 -7
-36 -12 -41 -20 -20 -9 -28 12 -10 13 10 18 12 11 4 -6 -8 -14 -30 -18 -47 -8
-41 -26 -54 -21 -16 2 15 1 22 -1 14 -4 -12 -6 -12 -14 0 -13 21 -12 -7 1 -32
7 -13 8 -25 1 -37 -9 -15 -10 -15 -11 5 0 12 -4 25 -10 28 -5 3 -10 18 -10 33
-1 23 -4 20 -24 -22 -18 -39 -24 -45 -30 -31 -3 10 -9 15 -13 12 -3 -4 -1 -13
6 -21 6 -8 11 -18 10 -22 -3 -20 2 -34 12 -34 7 0 9 10 5 26 -5 18 -3 24 5 18
7 -4 9 -3 6 3 -4 6 -1 18 6 27 11 15 14 13 25 -18 11 -30 11 -39 0 -50 -7 -7
-20 -23 -28 -35 l-15 -22 -7 23 c-5 18 -6 16 -7 -13 -1 -30 -5 -37 -25 -41
-27 -5 -56 7 -56 24 0 6 8 20 18 31 16 19 16 19 -4 7 -12 -7 -25 -29 -30 -48
-6 -22 -16 -36 -27 -38 -10 -1 -16 3 -14 9 3 7 9 11 15 10 6 -2 9 4 6 11 -3 9
-12 12 -21 9 -13 -5 -15 -1 -9 20 3 15 1 29 -6 33 -6 4 -8 3 -5 -2 3 -6 2 -16
-2 -23 -11 -18 -53 41 -45 63 11 27 -10 17 -28 -13 -15 -27 -38 -35 -54 -19
-8 9 -34 -2 -34 -14 0 -5 4 -7 9 -3 6 3 6 -7 0 -27 -5 -18 -9 -34 -9 -35 0 -2
-5 -3 -10 -3 -6 0 -8 13 -5 30 l5 29 -30 -17 c-16 -9 -30 -20 -30 -24 0 -5 -9
-8 -19 -8 -11 0 -21 -6 -23 -12 -3 -7 -7 -2 -10 10 -5 19 -3 22 15 20 18 -3
23 3 25 31 3 32 2 33 -13 21 -11 -9 -13 -16 -6 -18 19 -6 12 -21 -9 -19 -26 2
-26 36 0 79 11 18 20 38 20 43 -1 6 -12 -8 -25 -29 -19 -32 -25 -37 -31 -23
-6 17 -24 14 -24 -4 0 -6 5 -7 10 -4 6 3 10 -4 10 -16 0 -22 0 -22 -15 -3 -8
10 -15 30 -16 44 l-1 25 -8 -25 c-13 -41 -12 -60 4 -54 13 5 13 2 3 -20 -9
-20 -13 -22 -18 -9 -4 12 -9 10 -23 -12 -12 -17 -13 -25 -5 -20 8 5 5 -1 -5
-13 -11 -12 -20 -22 -22 -22 -7 0 4 53 13 58 6 4 13 17 17 30 9 28 -9 30 -24
2 -6 -11 -17 -20 -25 -20 -8 0 -15 -5 -15 -11 0 -5 6 -7 13 -4 6 4 4 0 -5 -8
-10 -8 -18 -23 -18 -33 0 -15 -2 -16 -9 -4 -6 8 -7 18 -4 23 7 12 31 117 27
117 -9 0 -37 -77 -35 -95 2 -15 0 -17 -11 -7 -8 6 -18 9 -21 5 -6 -5 -11 19
-8 39 0 4 -8 5 -19 3 -17 -3 -18 0 -13 28 3 18 11 39 18 47 7 8 16 30 20 48 4
18 11 30 16 26 5 -3 9 -1 9 4 0 6 -7 13 -15 16 -17 6 -36 -29 -28 -51 5 -13
-31 -36 -41 -26 -3 3 -6 -3 -6 -15 0 -12 -9 -31 -20 -42 -11 -11 -20 -28 -19
-37 0 -16 1 -16 8 1 5 14 10 16 15 7 11 -17 -14 -45 -28 -31 -14 14 -26 12
-26 -5 0 -8 -4 -15 -10 -15 -5 0 -10 -4 -10 -10 0 -15 28 0 33 18 4 15 5 15 6
0 1 -20 -35 -43 -44 -28 -3 5 -2 18 4 28 6 11 6 24 0 35 -6 9 -8 21 -5 25 3 5
-1 9 -8 9 -8 0 -12 -6 -9 -14 3 -7 1 -13 -3 -14 -5 0 -19 -2 -32 -3 -18 -2
-22 1 -19 16 3 10 1 18 -4 18 -5 0 -9 12 -9 28 -1 24 -2 25 -11 9 -6 -10 -9
-24 -6 -31 3 -6 -1 -23 -9 -37 l-14 -24 6 29 c5 19 3 27 -3 23 -8 -5 -8 6 -2
34 5 22 9 46 8 52 -1 7 1 29 5 49 12 55 4 63 -24 26 -14 -19 -17 -27 -7 -19
23 18 34 6 13 -14 -18 -19 -21 -35 -5 -35 13 0 2 -60 -15 -78 -10 -10 -12 -5
-12 26 1 28 -3 38 -11 35 -9 -4 -13 8 -13 38 0 24 -5 51 -11 59 -7 11 -8 -5
-3 -52 6 -64 5 -68 -21 -92 -15 -14 -32 -23 -38 -19 -6 3 -7 1 -3 -5 4 -7 3
-19 -2 -28 -7 -13 -12 -10 -25 18 -10 21 -12 37 -6 43 5 5 9 14 9 20 0 5 -5 3
-10 -5 -8 -11 -10 -5 -8 22 1 21 -1 40 -5 44 -6 7 -8 -10 -11 -103 -1 -18 2
-33 5 -33 3 0 3 -14 1 -31 -3 -20 -7 -27 -12 -18 -5 7 -6 19 -3 28 4 11 0 9
-10 -4 -14 -17 -16 -17 -17 -4 0 9 7 22 15 29 20 16 19 30 -1 30 -14 0 -14 3
-4 15 7 9 10 18 6 22 -3 3 -6 1 -6 -5 0 -19 -20 -14 -21 6 0 9 -5 1 -11 -18
-9 -31 -11 -33 -19 -15 -11 30 -11 65 2 63 6 -2 15 7 20 20 6 15 5 21 -1 17
-6 -3 -10 -14 -11 -23 0 -11 -2 -13 -6 -4 -8 21 -32 -18 -33 -54 0 -20 -6 -34
-16 -38 -11 -4 -15 -2 -11 7 4 10 -2 13 -20 9 -16 -3 -21 -7 -13 -12 8 -5 9
-13 4 -21 -6 -11 -5 -12 7 -3 20 14 79 18 79 5 0 -6 -9 -11 -20 -11 -11 0 -20
-5 -20 -11 0 -6 9 -9 20 -6 11 3 20 2 20 -3 0 -16 -40 -18 -50 -2 -8 15 -9 14
-10 -5 0 -12 5 -23 11 -25 8 -3 5 -10 -6 -21 -21 -21 -34 -14 -15 8 8 10 9 15
2 15 -6 0 -9 6 -6 14 3 8 -4 16 -20 20 -14 3 -26 10 -26 15 0 5 -9 7 -20 4
-22 -6 -29 20 -8 33 8 5 9 2 5 -9 -5 -14 -3 -15 13 -4 11 6 20 15 20 20 0 4
-4 5 -10 2 -5 -3 -10 1 -10 10 0 9 -4 13 -10 10 -5 -3 -10 -2 -10 4 0 5 6 12
13 14 7 3 4 6 -7 6 -13 1 -17 -4 -13 -19 3 -10 -1 -24 -9 -31 -11 -9 -14 -9
-14 0 0 7 -5 9 -11 6 -6 -4 -8 -13 -5 -21 3 -8 0 -11 -9 -8 -8 3 -11 13 -8 21
4 10 2 14 -4 10 -5 -4 -10 6 -10 23 0 16 3 27 7 25 4 -3 15 4 25 15 16 17 16
20 3 20 -12 0 -38 45 -38 66 0 1 9 0 20 -3 11 -3 17 -10 13 -17 -3 -6 -2 -7 2
-3 18 16 13 35 -9 31 -11 -2 -15 -2 -8 2 6 3 12 10 12 16 0 7 -4 7 -12 1 -21
-17 -108 -42 -108 -32 0 5 5 9 11 9 5 0 7 6 3 13 -6 9 -3 8 9 -1 14 -12 16
-11 14 7 -1 12 -7 21 -15 21 -7 0 -10 5 -7 10 5 8 11 7 21 -1 10 -8 14 -8 14
0 0 10 -6 12 -27 10 -4 0 -10 8 -14 18 -5 12 -8 4 -8 -24 -1 -42 -14 -63 -26
-43 -5 8 -12 7 -22 -2 -20 -16 -63 -22 -63 -8 0 5 -7 10 -15 10 -8 0 -15 -6
-15 -14 0 -8 -4 -18 -10 -21 -6 -3 -7 1 -4 9 7 19 8 19 -33 7 -22 -7 -33 -6
-37 2 -2 7 -5 4 -5 -5 -1 -10 -7 -15 -15 -12 -8 3 -15 -3 -18 -14 -6 -20 -39
-26 -50 -8 -5 7 -8 4 -8 -7 0 -10 -8 -20 -17 -24 -10 -3 -26 -13 -36 -21 -9
-8 -17 -11 -17 -6 0 5 -9 10 -20 10 -11 0 -20 -5 -20 -12 0 -6 -21 -14 -47
-18 -77 -11 -87 -13 -110 -21 -12 -4 -20 -12 -17 -19 3 -7 -7 -12 -26 -12 -30
-2 -40 9 -20 21 6 3 10 12 10 18 0 7 -9 1 -19 -12 -12 -16 -20 -20 -25 -12 -4
6 -12 9 -17 5 -5 -3 -7 -10 -4 -15 4 -5 0 -9 -9 -9 -26 0 -45 11 -40 25 4 9
-2 11 -20 8 -15 -3 -33 0 -40 7 -11 8 -20 8 -34 1 -13 -7 -22 -7 -29 0 -6 6
-14 5 -23 -6 -7 -8 -20 -15 -29 -14 -10 0 -11 2 -3 6 26 10 11 24 -19 18 -23
-5 -34 -2 -48 14 -12 14 -25 18 -42 15 -20 -5 -21 -4 -9 6 12 10 11 11 -7 7
-20 -5 -22 -3 -11 16 10 20 10 21 -6 8 -15 -12 -19 -13 -26 -1 -11 18 -49 23
-66 9 -15 -12 -23 -1 -28 38 -2 11 -13 19 -29 21 -16 2 -27 10 -27 18 0 12 7
14 30 9 18 -4 30 -3 30 4 0 6 8 7 18 4 15 -6 15 -5 3 11 -10 12 -17 14 -25 6
-17 -17 -28 -11 -21 10 4 14 2 20 -8 20 -9 0 -13 10 -12 29 1 26 -2 29 -23 28
-14 -1 -27 4 -30 12 -3 9 0 11 8 6 9 -5 11 -4 6 3 -4 7 -18 12 -32 12 -13 0
-24 5 -24 11 0 10 17 10 69 -3 8 -2 16 3 18 10 3 7 -4 12 -16 12 -12 0 -21 6
-21 15 0 11 7 14 28 10 20 -4 22 -3 8 3 -18 8 -17 10 8 29 33 26 33 43 1 43
-17 0 -25 6 -26 18 0 13 -2 14 -6 2 -9 -22 -25 -30 -47 -24 -15 5 -18 3 -13
-10 5 -11 1 -16 -13 -16 -26 0 -25 11 1 41 19 21 19 24 4 27 -13 3 -16 12 -13
38 2 19 1 34 -3 34 -4 0 -9 -15 -11 -32 -3 -28 -7 -33 -30 -33 -15 -1 -24 3
-21 8 3 5 -5 6 -18 2 -30 -9 -37 -17 -21 -22 18 -7 14 -22 -5 -19 -15 3 -17
11 -14 46 2 35 0 42 -12 37 -9 -3 -21 1 -27 9 -7 8 -17 14 -22 14 -5 0 3 -12
17 -26 29 -29 26 -47 -3 -21 -10 10 -28 17 -40 17 -12 0 -22 4 -22 8 0 4 -17
9 -37 10 -21 2 -41 9 -46 17 -4 8 -13 15 -18 15 -6 0 -7 -4 -4 -10 10 -16 0
-12 -26 11 -14 12 -25 16 -27 10 -2 -7 -15 -3 -32 9 -15 11 -38 20 -49 20 -12
0 -21 6 -21 13 0 8 -4 7 -10 -3 -8 -13 -10 -12 -10 3 0 19 -15 23 -25 7 -12
-20 -25 -9 -25 21 0 16 -4 28 -9 24 -5 -3 -17 3 -27 12 -17 17 -17 16 -10 -10
4 -18 3 -26 -3 -23 -5 4 -13 2 -16 -4 -5 -8 -11 -8 -20 0 -10 8 -14 7 -18 -2
-3 -7 -6 7 -7 32 l-2 45 -12 -49 c-10 -40 -14 -46 -24 -34 -6 8 -8 19 -4 23 4
5 1 5 -5 1 -7 -4 -13 -2 -13 3 0 6 8 11 18 11 15 1 15 2 -3 16 -12 9 -21 11
-23 4 -2 -5 -8 -8 -13 -4 -15 9 -10 -8 8 -28 13 -14 14 -21 5 -30 -9 -9 -12
-7 -12 10 0 12 -5 22 -11 22 -5 0 -7 -4 -4 -10 3 -5 1 -10 -5 -10 -8 0 -10 9
-6 25 4 15 2 25 -4 25 -6 0 -8 -5 -5 -11 4 -6 -2 -13 -14 -16 -11 -3 -19 -9
-16 -13 3 -5 -9 -13 -26 -19 -26 -9 -30 -8 -25 4 4 12 2 13 -17 2 -12 -6 -25
-16 -29 -22 -5 -6 -8 -5 -8 3 0 6 -9 12 -20 12 -33 0 -23 17 18 29 l37 10 -37
-3 c-28 -3 -38 0 -38 10 0 8 -8 14 -17 13 -11 0 -13 -3 -5 -6 6 -2 12 -11 12
-19 0 -9 -5 -12 -10 -9 -6 4 -17 1 -25 -5 -12 -10 -18 -10 -30 0 -8 6 -18 9
-23 6 -5 -3 -23 8 -41 24 -33 32 -46 36 -56 20 -9 -15 -27 -1 -21 16 4 10 -3
14 -22 14 -25 0 -27 -3 -28 -42 0 -43 -3 -48 -26 -48 -9 0 -8 3 2 10 17 10 14
15 -18 25 -12 3 -22 3 -21 -2 5 -28 -2 -35 -28 -29 -20 5 -24 4 -13 -3 8 -6
12 -12 9 -16 -9 -8 -69 6 -63 16 3 5 0 17 -6 26 -9 15 -11 15 -7 2 3 -9 0 -22
-6 -28 -16 -16 -32 -14 -18 3 6 7 8 21 5 30 -4 9 -3 16 2 15 5 -1 20 0 34 1
22 2 21 3 -10 13 -19 6 -42 18 -50 28 -13 15 -17 15 -29 1 -11 -11 -12 -19 -3
-33 16 -25 15 -30 -3 -23 -8 4 -15 12 -15 18 0 17 -39 33 -67 28 -21 -3 -28
-17 -24 -49 1 -7 -3 -13 -9 -13 -5 0 -10 8 -10 18 0 9 -9 23 -19 29 -15 10
-22 9 -35 -6 -9 -10 -14 -25 -10 -35 5 -12 2 -15 -10 -10 -10 4 -16 1 -16 -9
0 -9 -5 -19 -12 -23 -8 -5 -9 2 -5 27 5 24 4 30 -3 19 -8 -12 -10 -9 -10 13 0
15 -5 27 -11 27 -5 0 -7 -5 -4 -10 4 -6 4 -23 0 -38 -4 -22 -11 -27 -35 -27
-31 0 -40 9 -18 18 8 3 6 6 -4 6 -11 1 -18 -6 -18 -18 0 -43 -19 -29 -22 16
-2 35 -7 49 -20 51 -19 4 -27 -22 -17 -59 5 -19 1 -30 -16 -45 -27 -24 -46
-10 -33 25 5 13 6 26 4 28 -2 3 -8 -6 -12 -19 -7 -22 -7 -22 -15 -3 -7 18 -8
18 -8 -4 -1 -13 -4 -21 -8 -18 -3 4 -12 2 -20 -4 -10 -9 -13 -5 -13 19 0 17 6
37 13 44 27 29 42 52 28 44 -10 -7 -12 -3 -6 15 16 51 102 142 166 175 19 9
36 20 39 23 3 4 28 23 57 44 62 45 123 70 228 93 44 9 88 21 97 26 22 11 257
38 330 38 31 0 60 5 63 10 4 6 11 8 16 5 5 -4 9 -1 9 6 0 19 49 79 65 79 9 0
12 6 9 15 -4 9 0 15 10 15 9 0 16 7 16 15 0 9 7 18 15 21 8 4 15 17 15 30 0
14 8 37 18 52 20 31 72 86 76 81 2 -2 7 -41 10 -86 7 -75 6 -83 -14 -103 -17
-17 -19 -24 -10 -35 10 -11 6 -16 -17 -21 -34 -9 -53 -27 -53 -49 0 -12 5 -15
16 -11 9 4 99 11 200 16 101 5 187 11 191 13 7 4 165 38 237 51 16 3 53 10 82
16 29 6 63 10 76 8 38 -4 281 13 313 22 98 28 173 55 223 79 53 26 82 35 180
61 20 5 85 16 144 24 59 9 118 22 130 30 13 8 43 14 67 14 24 1 47 6 51 13 5
8 25 10 59 7 44 -4 48 -3 33 8 -15 12 -12 13 23 14 22 1 34 4 27 7 -10 4 -10
8 0 21 11 13 11 14 0 8 -12 -7 -68 -16 -104 -17 -10 0 -18 -4 -18 -10 0 -5 -5
-9 -10 -9 -6 0 -2 12 7 27 11 17 13 24 5 19 -8 -5 -33 -9 -57 -10 -42 -2 -42
-1 -24 15 11 10 16 20 10 23 -5 3 -16 -1 -24 -9 -17 -16 -37 -20 -37 -7 0 16
24 32 49 33 15 0 35 4 46 8 13 5 1 7 -33 6 -29 -2 -58 -8 -65 -13 -18 -15
-112 -27 -103 -13 4 6 2 11 -3 11 -6 0 -11 -6 -11 -14 0 -14 -52 -39 -82 -39
-10 0 -14 -5 -11 -14 4 -9 -2 -16 -16 -20 -11 -3 -19 -9 -16 -13 8 -13 -26
-21 -40 -10 -6 5 -15 7 -18 3 -11 -10 -8 6 5 30 13 26 40 47 50 41 4 -2 9 0
13 6 3 5 1 10 -4 10 -6 0 -11 5 -11 10 0 6 11 10 25 10 14 0 25 4 25 9 0 5 17
15 38 22 34 11 122 57 122 64 0 6 -45 -8 -50 -15 -10 -14 -50 -22 -50 -10 0 7
-7 10 -15 6 -22 -8 -18 12 5 24 11 6 20 18 20 28 -1 14 -5 12 -21 -8 l-21 -24
-18 24 c-16 22 -17 27 -4 52 13 24 12 27 -1 22 -8 -4 -15 -10 -15 -15 0 -13
-42 -49 -52 -43 -4 3 -6 10 -3 15 4 5 1 9 -4 9 -6 0 -11 -7 -11 -15 0 -8 -9
-15 -21 -15 -15 0 -19 -5 -14 -19 4 -15 0 -20 -24 -23 -17 -3 -29 0 -28 6 1 6
-8 12 -20 14 -16 2 -23 -2 -23 -12 0 -9 -4 -16 -10 -16 -5 0 -7 6 -4 14 7 18
-8 27 -26 15 -13 -7 -13 -9 -1 -9 8 0 12 -2 9 -5 -12 -13 -38 8 -33 26 8 25 0
24 -26 -2 -25 -25 -35 -19 -19 10 8 17 8 21 -2 19 -7 -2 -12 3 -10 10 1 6 -2
12 -8 12 -5 0 -10 -5 -10 -10 0 -6 -8 -14 -17 -17 -10 -4 -24 -13 -31 -20 -18
-17 -32 -16 -32 2 0 22 -17 18 -23 -6 -7 -26 -27 -16 -27 13 0 19 -1 19 -20
-5 -22 -27 -40 -27 -71 0 -14 12 -18 12 -21 1 -4 -11 -8 -10 -21 1 -15 12 -17
11 -17 -3 0 -19 3 -18 -39 -6 -28 8 -38 6 -55 -8 -18 -16 -19 -16 -13 1 7 17
3 18 -45 11 -29 -4 -65 -8 -80 -9 -20 0 -28 -5 -28 -17 0 -10 -7 -18 -15 -18
-9 0 -15 9 -15 25 0 31 -7 31 -30 3 -13 -17 -15 -25 -7 -30 8 -5 5 -8 -6 -8
-11 0 -21 9 -24 20 -4 17 -8 18 -27 8 -11 -7 -40 -13 -64 -14 -40 -2 -42 -1
-37 19 6 20 5 21 -8 5 -17 -22 -27 -23 -27 -4 0 10 -13 16 -37 18 -31 2 -39 7
-41 26 -2 15 -8 22 -18 18 -14 -5 -38 27 -39 54 0 8 -6 14 -12 13 -16 -4 -17
13 -1 23 8 5 6 11 -6 19 -15 12 -16 20 -5 81 7 38 19 82 26 97 19 39 10 44
-16 10 -11 -15 -34 -41 -50 -58 -23 -24 -32 -48 -46 -120 -10 -49 -22 -101
-27 -115 -6 -14 -17 -45 -24 -70 l-14 -45 6 48 c3 28 1 47 -5 47 -13 0 -30 59
-27 90 2 14 4 44 5 67 1 35 5 42 24 45 23 3 31 32 10 34 -7 1 -19 2 -27 3 -23
2 -37 54 -34 132 2 51 7 74 16 74 6 0 11 5 10 10 -1 6 -7 9 -13 8 -21 -5 -45
71 -43 139 l2 68 33 6 c40 8 43 21 6 30 -49 12 -64 40 -61 111 1 35 6 63 11
63 4 0 6 4 3 9 -6 9 51 26 122 37 56 8 48 14 -30 25 -102 15 -111 17 -119 31
-12 18 -11 95 1 103 5 3 7 12 3 21 -3 8 -2 14 3 13 23 -4 45 2 39 11 -3 6 1 7
9 4 9 -3 16 -1 16 4 0 6 16 14 35 18 19 3 37 10 40 14 5 8 -48 23 -123 35 -56
9 -63 26 -54 117 7 70 8 73 35 76 38 5 34 16 -13 35 -48 18 -57 40 -55 122 4
93 4 93 23 98 14 4 15 5 1 6 -41 3 -68 169 -36 222 10 18 9 23 -1 26 -7 3 -18
17 -24 32 -12 31 -11 167 2 191 7 13 3 20 -16 29 -18 8 -754 11 -2849 11
l-2825 0 0 -5330z m1157 3046 c-3 -7 0 -19 6 -25 8 -8 8 -11 -2 -11 -8 0 -10
-7 -5 -22 3 -12 6 -45 5 -72 -5 -144 -4 -186 2 -192 3 -4 4 -11 0 -17 -6 -10
-12 -190 -13 -390 0 -64 -4 -106 -9 -102 -5 3 -13 0 -17 -6 -5 -8 -3 -9 6 -4
10 6 12 -4 8 -49 -3 -36 -1 -56 6 -56 8 0 8 -3 0 -8 -13 -8 -25 -112 -13 -112
5 0 7 -6 4 -12 -5 -16 -17 -242 -16 -285 1 -18 -2 -33 -6 -33 -4 0 -8 -12 -9
-27 -1 -49 -15 -296 -21 -383 -3 -47 -7 -236 -8 -420 0 -184 -4 -345 -8 -357
-5 -12 -28 -32 -53 -44 -25 -12 -48 -28 -51 -35 -3 -8 -10 -14 -17 -14 -13 0
-32 -39 -45 -95 -5 -22 -10 -31 -10 -20 -1 15 -3 17 -10 6 -5 -8 -11 -9 -15
-3 -3 6 -2 13 3 17 6 3 15 22 20 42 8 27 7 39 -4 50 -16 15 -13 106 4 127 5 6
8 35 6 64 -2 28 1 52 7 52 5 0 6 6 1 13 -4 6 -6 23 -4 36 1 13 -3 28 -11 33
-10 8 -9 9 4 4 10 -3 20 -1 23 4 4 6 2 10 -4 10 -10 0 -8 55 5 104 4 19 3 27
-3 23 -6 -4 -16 0 -23 8 -11 13 -10 14 5 9 15 -6 17 -4 12 16 -3 13 -1 30 5
38 9 10 8 16 -3 23 -12 7 -12 9 1 9 13 0 13 1 0 10 -10 7 -11 13 -5 18 16 10
17 63 3 90 -9 17 -9 33 -1 65 9 31 9 44 0 49 -9 6 -8 8 2 8 11 0 11 3 1 15 -6
8 -9 19 -6 24 4 5 2 12 -4 16 -7 4 -6 13 1 27 6 11 8 31 5 44 -4 16 -2 24 6
25 10 0 10 2 1 5 -7 3 -9 12 -6 21 4 9 -1 21 -12 29 -18 13 -17 14 6 14 17 0
20 3 10 9 -8 5 -10 14 -5 22 13 22 14 51 3 95 -8 30 -8 48 0 62 7 14 8 29 1
46 -7 21 -6 26 5 26 8 0 15 5 15 10 0 6 -4 10 -10 10 -5 0 -7 13 -5 30 2 16 0
32 -5 35 -5 3 -3 17 5 31 7 15 11 33 8 40 -3 8 0 14 6 14 14 0 15 37 1 45 -6
4 -7 12 -3 18 5 7 13 41 19 77 7 36 15 76 19 90 4 14 9 36 11 50 2 14 11 57
18 95 8 39 22 111 31 160 10 50 21 99 26 110 5 11 11 38 13 60 7 67 18 129 27
146 9 17 20 111 24 205 1 34 5 66 8 70 3 5 8 30 12 57 4 26 12 47 17 47 6 0 8
-6 5 -14z m6361 -70 c-10 -7 -15 -16 -11 -19 3 -4 -11 -6 -33 -6 -30 2 -33 3
-11 6 15 2 27 8 27 13 0 7 16 14 40 19 3 0 -3 -6 -12 -13z m-218 -116 c0 -5
-11 -12 -25 -16 -14 -3 -25 -10 -25 -14 0 -5 -9 -6 -20 -3 -22 6 -22 6 -14 27
7 18 84 23 84 6z m3593 -377 c77 -80 228 -356 307 -563 12 -30 28 -68 36 -85
59 -127 251 -791 275 -954 4 -29 12 -65 17 -80 6 -14 15 -53 22 -86 6 -33 18
-87 25 -120 23 -97 37 -186 37 -222 0 -13 4 -20 9 -17 11 7 11 1 -1 -31 -5
-14 -6 -24 -1 -21 13 9 22 -23 12 -42 -4 -9 -6 -23 -3 -31 3 -8 0 -11 -7 -7
-6 4 -11 2 -11 -3 0 -6 3 -11 8 -11 4 0 8 -12 8 -28 1 -15 -1 -21 -3 -14 -9
23 -19 12 -20 -22 -1 -18 -9 -43 -19 -55 -11 -12 -19 -27 -19 -33 0 -6 -6 -13
-12 -15 -7 -3 -13 0 -13 6 0 6 -5 11 -11 11 -5 0 -8 -4 -4 -9 3 -6 -1 -13 -8
-18 -8 -4 -19 -17 -26 -28 -11 -19 -12 -18 -7 5 5 21 3 20 -8 -6 -21 -45 -43
-58 -98 -60 -28 -2 -55 -7 -61 -13 -16 -16 -27 -13 -28 7 0 10 -3 12 -6 5 -2
-8 -22 -13 -44 -13 -47 0 -60 -21 -34 -50 10 -11 14 -20 8 -20 -9 0 -26 27
-36 60 -4 12 -6 11 -6 -2 -1 -10 -5 -18 -11 -18 -5 0 -10 8 -11 18 0 9 -3 12
-5 5 -3 -7 -12 -9 -21 -6 -13 5 -14 3 -3 -16 6 -13 9 -25 6 -29 -3 -3 -6 0 -6
7 0 7 -4 10 -9 7 -5 -3 -7 -15 -4 -25 3 -10 0 -22 -6 -25 -6 -4 -11 -3 -11 2
0 16 -59 20 -64 5 -8 -19 -27 -16 -24 3 2 10 -3 19 -9 21 -8 3 -13 -4 -13 -16
0 -12 -5 -21 -11 -21 -6 0 -8 -7 -5 -16 4 -10 2 -13 -6 -8 -19 12 -68 12 -69
0 0 -6 -4 -2 -9 9 -5 11 -9 15 -9 8 -1 -6 -16 -12 -33 -12 -18 0 -44 -1 -58
-2 -34 -2 -70 4 -70 11 0 3 -19 6 -42 7 -23 1 -45 8 -49 15 -7 11 -12 11 -29
0 -11 -7 -20 -9 -20 -4 0 10 -46 10 -56 0 -12 -13 -24 -9 -24 8 0 13 -3 14
-13 5 -8 -6 -18 -7 -22 -3 -5 4 -5 -1 -2 -11 4 -11 3 -16 -3 -12 -6 3 -10 0
-10 -7 -1 -7 -7 -2 -15 12 -11 19 -14 21 -15 8 0 -10 -7 -18 -15 -18 -18 0
-19 12 -3 28 8 8 8 12 1 12 -14 0 -44 -62 -59 -120 -11 -44 -12 -44 -6 20 3
36 6 88 7 115 l0 50 -92 -3 c-50 -2 -98 0 -106 5 -10 5 19 9 74 10 89 3 129
13 129 34 0 8 -16 9 -47 4 -27 -4 -64 -8 -83 -10 -44 -3 -196 20 -235 35 -70
29 -175 82 -175 90 0 5 -8 11 -19 15 -25 8 -126 108 -158 157 -36 53 -91 179
-117 263 -46 155 -6 378 98 543 15 23 31 40 36 37 6 -3 7 1 4 10 -12 31 190
206 218 189 6 -4 8 -3 5 3 -4 7 21 22 61 38 37 15 75 31 84 36 10 5 23 9 30 8
7 0 4 -4 -7 -9 -16 -7 -17 -9 -3 -9 9 -1 21 6 26 16 7 11 15 14 28 8 31 -14
55 -13 61 1 3 8 10 14 16 14 5 0 2 -9 -8 -20 -10 -11 -15 -28 -12 -39 4 -16
-2 -21 -27 -27 -75 -16 -199 -65 -241 -97 -63 -47 -62 -44 -41 -64 13 -12 16
-12 8 -2 -10 13 -8 20 9 35 20 18 21 18 36 -1 14 -20 15 -19 11 4 -4 30 28 54
42 31 8 -12 10 -11 10 7 0 25 38 42 50 23 5 -8 9 -5 13 9 6 23 42 29 50 9 4
-8 6 -7 6 3 2 29 50 40 52 12 1 -17 2 -17 6 0 2 9 8 17 13 17 5 0 15 3 24 6
12 4 16 0 17 -17 2 -24 2 -24 6 -1 3 17 11 22 34 22 20 0 29 -5 30 -17 1 -16
2 -16 6 -1 2 9 14 19 26 21 12 2 4 5 -18 6 -37 1 -40 3 -42 31 -2 21 2 29 10
25 7 -4 3 1 -7 9 -19 15 -19 16 11 16 17 0 34 -6 36 -12 3 -7 6 -1 6 15 1 25
-2 27 -36 28 l-38 2 40 7 c61 10 21 22 -56 16 -35 -2 -71 -6 -79 -9 -12 -4
-44 -13 -80 -22 -24 -5 -135 -52 -175 -73 -62 -33 -60 -31 -52 -38 3 -4 23 4
44 16 l38 22 -30 -25 c-16 -15 -34 -26 -39 -27 -5 0 -29 -16 -53 -36 -24 -20
-46 -34 -49 -32 -2 3 17 19 42 38 34 24 43 35 32 41 -9 7 -36 -16 -95 -78 -45
-49 -82 -92 -82 -98 0 -5 15 8 34 29 50 56 43 38 -14 -37 -26 -36 -61 -90 -76
-121 -15 -31 -30 -55 -32 -52 -5 5 42 100 68 138 21 29 23 38 10 38 -10 0
-121 -221 -121 -240 0 -7 -3 -10 -6 -7 -4 3 3 32 16 64 12 32 27 71 33 86 5
16 15 34 21 41 6 6 16 19 21 28 6 9 23 32 39 52 38 48 29 55 -15 13 -58 -57
-145 -251 -173 -387 -3 -14 -3 4 0 39 4 61 47 215 65 236 5 5 9 15 9 23 0 8
21 48 47 89 41 64 78 104 166 178 13 12 17 28 15 65 -2 28 -6 50 -10 50 -9 0
-16 43 -21 128 -4 51 -2 61 9 52 16 -14 36 -107 34 -163 -2 -57 -1 -64 9 -48
7 10 13 11 27 2 17 -9 17 -10 2 -11 -10 0 -18 -4 -18 -10 0 -15 26 -12 62 8
62 35 190 82 237 87 52 6 72 10 112 20 15 4 43 2 63 -3 43 -12 43 -12 21 91
-54 251 -106 396 -210 582 -71 127 -128 199 -178 224 -44 21 -43 22 38 26 96
4 277 17 360 25 50 5 155 15 235 21 80 6 146 12 148 14 2 2 52 3 111 4 l108 2
36 -38z m-5513 -383 c0 -5 -4 -10 -10 -10 -5 0 -10 5 -10 10 0 6 5 10 10 10 6
0 10 -4 10 -10z m-332 -13 c10 0 9 -4 -2 -15 -13 -13 -16 -13 -30 1 -21 21
-20 31 2 22 9 -4 23 -8 30 -8z m-108 -80 c0 -10 -5 -17 -11 -15 -6 2 -10 7
-10 11 1 4 1 17 1 30 0 18 2 19 10 7 5 -8 10 -23 10 -33z m37 11 c-3 -8 -6 -5
-6 6 -1 11 2 17 5 13 3 -3 4 -12 1 -19z m543 -9 c0 -4 -7 -6 -15 -3 -8 4 -15
10 -15 15 0 4 7 6 15 3 8 -4 15 -10 15 -15z m70 5 c0 -8 -4 -12 -10 -9 -5 3
-10 10 -10 16 0 5 5 9 10 9 6 0 10 -7 10 -16z m-543 -26 c-3 -7 -5 -2 -5 12 0
14 2 19 5 13 2 -7 2 -19 0 -25z m162 -2 c9 -10 8 -15 -3 -19 -8 -3 -16 2 -19
14 -6 22 6 25 22 5z m431 4 c0 -5 -7 -7 -15 -4 -8 4 -15 8 -15 10 0 2 7 4 15
4 8 0 15 -4 15 -10z m-640 -15 c0 -8 -2 -15 -4 -15 -2 0 -6 7 -10 15 -3 8 -1
15 4 15 6 0 10 -7 10 -15z m280 -35 c0 -5 -2 -10 -4 -10 -3 0 -8 5 -11 10 -3
6 -1 10 4 10 6 0 11 -4 11 -10z m4337 -12 c-3 -8 -6 -5 -6 6 -1 11 2 17 5 13
3 -3 4 -12 1 -19z m-17 -25 c0 -21 -3 -24 -9 -14 -5 8 -7 20 -4 28 8 21 13 15
13 -14z m-4270 2 c0 -8 -2 -15 -4 -15 -2 0 -6 7 -10 15 -3 8 -1 15 4 15 6 0
10 -7 10 -15z m-197 -17 c-2 -5 -13 -8 -24 -8 -10 0 -19 3 -19 8 0 4 11 7 24
7 13 0 22 -3 19 -7z m274 -57 c1 -14 -1 -20 -4 -13 -5 13 -39 17 -46 5 -2 -5
-2 -2 0 6 2 9 -3 12 -17 8 -11 -3 -20 -1 -20 3 0 10 25 17 60 17 21 0 26 -5
27 -26z m1148 -3 c5 4 5 2 1 -5 -8 -14 -36 -6 -36 9 0 7 5 6 13 -1 8 -6 18 -7
22 -3z m-1025 -27 c0 -5 -11 -11 -25 -13 -14 -3 -25 -3 -25 -1 0 3 34 19 48
22 1 1 2 -3 2 -8z m61 -8 c8 2 11 2 7 0 -4 -2 -4 -11 -1 -19 7 -19 0 -18 -25
5 -24 20 -31 41 -8 22 7 -6 20 -10 27 -8z m-774 -15 c-3 -8 -6 -5 -6 6 -1 11
2 17 5 13 3 -3 4 -12 1 -19z m594 -1 c-10 -9 -11 -8 -5 6 3 10 9 15 12 12 3
-3 0 -11 -7 -18z m1259 14 c0 -5 -9 -11 -20 -14 -13 -3 -20 0 -20 9 0 8 9 14
20 14 11 0 20 -4 20 -9z m-60 -65 c-14 -14 -22 -2 -14 18 5 14 9 15 15 4 4 -7
4 -17 -1 -22z m3044 9 c3 -8 1 -15 -4 -15 -6 0 -10 7 -10 15 0 8 2 15 4 15 2
0 6 -7 10 -15z m-2974 -124 c0 -6 -4 -13 -10 -16 -5 -3 -10 1 -10 9 0 9 5 16
10 16 6 0 10 -4 10 -9z m1325 -121 c4 -6 4 -19 0 -28 -6 -15 -8 -14 -16 5 -6
16 -14 21 -26 17 -15 -5 -16 -4 -3 5 19 14 37 14 45 1z m-91 -25 c-4 -8 -11
-15 -16 -15 -6 0 -8 -7 -5 -15 4 -8 2 -17 -2 -20 -5 -2 -11 5 -14 16 -4 13
-10 18 -18 13 -8 -4 -10 -3 -5 4 4 6 13 9 20 6 7 -3 19 2 26 11 16 19 21 19
14 0z m45 -13 c-7 -10 -18 -19 -25 -19 -19 0 -18 7 4 23 24 19 34 17 21 -4z
m58 -16 c-5 -14 -66 -56 -82 -56 -7 0 -16 8 -19 17 -4 10 -4 14 0 11 3 -4 17
4 31 16 26 24 77 33 70 12z m2136 -3 c-7 -2 -19 -2 -25 0 -7 3 -2 5 12 5 14 0
19 -2 13 -5z m-3339 -11 c3 -5 -1 -9 -9 -9 -8 0 -12 4 -9 9 3 4 7 8 9 8 2 0 6
-4 9 -8z m3271 -2 c-11 -5 -29 -9 -40 -9 l-20 0 20 9 c11 5 29 9 40 9 l20 0
-20 -9z m-68 -16 c-3 -3 -12 -4 -19 -1 -8 3 -5 6 6 6 11 1 17 -2 13 -5z
m-3670 -23 c0 -11 -4 -18 -8 -15 -4 2 -10 0 -14 -6 -7 -11 -25 -4 -25 10 0 5
7 7 15 4 8 -4 17 1 21 10 8 22 13 20 11 -3z m3240 -13 c-3 -7 -5 -2 -5 12 0
14 2 19 5 13 2 -7 2 -19 0 -25z m383 22 c-20 -13 -33 -13 -25 0 3 6 14 10 23
10 15 0 15 -2 2 -10z m-3710 -44 c0 -5 -6 -3 -13 3 -8 6 -18 7 -23 3 -4 -4 -2
1 5 11 11 14 16 15 22 5 5 -7 9 -17 9 -22z m230 24 c0 -5 -4 -10 -10 -10 -5 0
-10 5 -10 10 0 6 5 10 10 10 6 0 10 -4 10 -10z m222 -4 c9 6 9 3 -1 -9 -8 -10
-14 -16 -15 -15 -1 2 -8 12 -16 23 -14 18 -14 19 2 7 10 -8 23 -10 30 -6z
m1173 4 c3 -5 1 -10 -4 -10 -6 0 -11 5 -11 10 0 6 2 10 4 10 3 0 8 -4 11 -10z
m45 0 c12 -8 11 -10 -7 -10 -13 0 -23 5 -23 10 0 13 11 13 30 0z m817 -12 c-3
-8 -6 -5 -6 6 -1 11 2 17 5 13 3 -3 4 -12 1 -19z m1173 12 c-8 -5 -19 -10 -25
-10 -5 0 -3 5 5 10 8 5 20 10 25 10 6 0 3 -5 -5 -10z m-3553 -19 c0 -11 -5
-18 -9 -15 -4 3 -5 11 -1 19 7 21 12 19 10 -4z m1593 -1 c0 -11 -4 -20 -9 -20
-5 0 -7 9 -4 20 3 11 7 20 9 20 2 0 4 -9 4 -20z m-910 0 c0 -5 -4 -10 -10 -10
-5 0 -7 -7 -4 -15 5 -11 2 -13 -10 -9 -19 7 -20 16 -4 32 15 15 28 16 28 2z
m50 0 c0 -5 -4 -10 -10 -10 -5 0 -10 5 -10 10 0 6 5 10 10 10 6 0 10 -4 10
-10z m897 -9 c0 -11 -6 -17 -14 -14 -16 6 -17 20 0 26 6 3 13 6 14 6 1 1 1 -8
0 -18z m-1867 -2 c0 -5 -4 -7 -10 -4 -5 3 -10 -1 -10 -9 0 -20 -17 -21 -36 -2
-12 13 -12 15 4 19 32 9 52 7 52 -4z m2327 -26 c-3 -10 -5 -4 -5 12 0 17 2 24
5 18 2 -7 2 -21 0 -30z m1123 33 c0 -2 -7 -7 -16 -10 -8 -3 -12 -2 -9 4 6 10
25 14 25 6z m-3417 -23 c-3 -7 2 -13 10 -13 8 0 17 6 20 13 2 6 8 8 13 4 5 -5
-2 -17 -16 -27 l-25 -20 23 0 c19 0 27 -10 23 -32 0 -4 6 -5 15 -1 13 5 13 7
-1 23 -18 20 -11 30 24 30 19 0 22 -3 13 -12 -16 -16 -15 -35 2 -41 10 -4 12
0 8 15 -4 18 -1 20 27 16 20 -3 30 -1 28 6 -2 6 6 16 17 22 25 12 59 6 49 -9
-3 -6 -1 -7 6 -3 17 11 66 -3 55 -14 -6 -6 -22 -11 -36 -12 -32 -3 -28 -14 7
-20 13 -3 23 -2 20 2 -5 8 31 40 44 40 5 0 11 5 13 12 5 15 78 14 88 -1 3 -7
14 -9 23 -5 10 3 24 1 31 -5 8 -7 25 -9 40 -5 17 4 26 2 26 -6 0 -6 -4 -8 -10
-5 -5 3 -10 1 -10 -5 0 -6 11 -8 28 -5 75 17 110 17 141 1 18 -10 29 -21 25
-28 -5 -7 -12 -5 -20 7 -8 10 -17 16 -20 12 -4 -3 -15 -2 -26 4 -10 6 3 -12
29 -39 39 -41 49 -46 51 -31 4 22 22 26 22 4 0 -8 5 -15 10 -15 6 0 10 5 10
10 0 6 4 10 10 10 5 0 7 -7 4 -15 -4 -9 -1 -15 7 -15 10 0 10 -3 1 -12 -8 -8
-15 -8 -26 1 -8 7 -20 10 -26 6 -16 -10 -1 -25 26 -25 13 0 24 -4 24 -10 0 -5
-5 -10 -12 -10 -6 0 -8 -3 -4 -7 4 -5 14 1 22 11 13 19 14 19 15 -5 l0 -24 10
23 c5 13 14 20 20 17 6 -4 8 -14 5 -22 -3 -8 -1 -11 4 -8 23 14 29 -8 8 -26
-15 -12 -17 -17 -7 -13 22 7 33 -12 19 -33 -9 -14 -10 -14 -7 -2 3 9 -1 16 -9
16 -7 0 -11 -4 -8 -9 3 -4 2 -13 -2 -19 -9 -15 -25 11 -19 32 4 10 -6 22 -29
34 -39 21 -56 16 -31 -8 20 -21 19 -30 -10 -61 -31 -33 -43 -33 -38 2 3 23 2
24 -6 7 -9 -19 -10 -18 -11 5 -2 24 -2 24 -11 -4 -5 -20 -4 -34 3 -44 9 -11 9
-13 -3 -11 -7 2 -25 -3 -38 -10 -12 -7 -32 -11 -42 -8 -20 5 -26 -7 -9 -18 15
-9 12 -32 -5 -32 -8 0 -15 9 -15 21 0 12 -4 17 -8 11 -4 -5 -17 -15 -29 -22
-17 -10 -23 -10 -26 0 -3 7 -6 4 -6 -5 -1 -10 -8 -18 -16 -18 -8 0 -15 -9 -15
-20 0 -25 -8 -25 -33 -2 -12 9 -17 11 -12 3 6 -11 1 -13 -24 -9 -17 2 -31 1
-31 -4 0 -4 5 -8 10 -8 6 0 10 -5 10 -11 0 -5 -10 -9 -22 -7 -13 2 -23 -3 -24
-9 -1 -7 -2 -15 -3 -18 0 -2 -12 0 -25 5 -14 5 -27 5 -33 -1 -5 -5 -28 -11
-50 -13 -22 -3 -61 -8 -87 -11 -34 -5 -46 -4 -46 5 0 9 -5 8 -18 -3 -14 -13
-21 -14 -30 -5 -6 6 -33 11 -59 11 -26 0 -54 4 -60 10 -9 7 -13 5 -13 -7 0
-18 -25 -22 -35 -6 -4 6 -11 8 -16 5 -5 -4 -9 -1 -9 4 0 6 -7 11 -15 11 -8 0
-15 -7 -15 -15 0 -18 -12 -19 -28 -3 -7 7 -12 8 -12 2 -1 -5 -10 7 -21 26
l-20 35 6 -35 c5 -31 4 -32 -6 -15 -12 20 -35 42 -79 78 l-23 19 5 -29 c3 -19
0 -30 -8 -30 -7 0 -12 3 -11 6 0 3 -2 25 -6 49 -7 41 -27 59 -27 25 0 -15 -2
-15 -9 -4 -5 8 -7 21 -3 29 3 10 1 13 -6 8 -7 -4 -12 -1 -12 8 0 9 5 16 10 16
17 0 11 17 -7 22 -14 4 -18 -2 -20 -30 -2 -39 -17 -61 -28 -41 -5 8 -4 10 3 5
7 -4 12 -1 12 7 0 13 -27 28 -55 31 -5 1 -14 6 -18 11 -6 6 -10 6 -14 -2 -7
-19 -25 -16 -22 5 3 38 -1 42 -46 42 -29 0 -45 -4 -46 -12 0 -9 -2 -9 -6 1 -4
11 -7 11 -13 0 -10 -16 -50 -23 -50 -8 0 5 5 7 10 4 6 -3 10 -1 10 6 0 6 -8 9
-19 6 -18 -4 -32 11 -35 38 -1 6 -9 9 -19 9 -16 -2 -21 7 -18 32 1 6 -6 17
-14 24 -13 10 -15 9 -15 -8 0 -12 -9 -26 -19 -31 -16 -9 -18 -8 -14 12 3 12 7
29 10 37 4 8 5 21 4 28 -1 9 6 11 23 6 19 -4 26 -2 26 9 0 19 67 29 74 10 3
-7 10 -13 17 -13 6 0 8 7 5 16 -5 13 -1 15 24 12 16 -3 30 -2 30 2 0 9 44 7
51 -2 5 -8 59 12 59 23 0 3 21 5 46 4 25 0 48 3 51 7 2 5 11 4 19 -3 11 -9 14
-8 14 2 0 11 3 11 11 -1 9 -12 12 -13 16 -1 5 11 7 11 14 0 7 -11 9 -9 9 6 1
18 2 19 13 3 12 -15 14 -15 26 4 7 11 8 17 2 14 -7 -5 -8 -1 -4 9 5 14 9 13
29 -11 21 -23 24 -24 24 -8 0 10 4 25 9 33 11 17 48 6 54 -17 3 -10 5 -5 6 11
1 25 3 26 24 15 12 -7 24 -16 27 -19 3 -3 16 -11 30 -18 22 -11 23 -10 8 2
-10 8 -15 17 -11 20 3 4 1 7 -6 7 -7 0 -9 5 -5 11 4 7 0 9 -14 5 -11 -4 -23
-3 -26 3 -3 5 8 8 25 7 17 -1 34 -7 37 -13 8 -13 92 -16 92 -3 0 5 -4 12 -10
15 -15 9 -12 22 4 22 8 0 12 -6 9 -14z m277 2 c0 -8 -2 -15 -4 -15 -2 0 -6 7
-10 15 -3 8 -1 15 4 15 6 0 10 -7 10 -15z m133 8 c-7 -2 -19 -2 -25 0 -7 3 -2
5 12 5 14 0 19 -2 13 -5z m57 -15 c0 -7 -5 -6 -13 1 -8 6 -18 7 -22 3 -5 -4
-5 -2 -1 5 8 14 36 6 36 -9z m133 9 c-3 -5 3 -8 13 -7 26 3 64 -10 64 -21 0
-13 -49 0 -85 22 -26 16 -27 18 -8 16 12 0 19 -5 16 -10z m1504 -14 c1 -24 0
-25 -6 -8 -7 17 -6 35 2 35 2 0 3 -12 4 -27z m-1937 7 c10 -6 -5 -9 -47 -7
-35 1 -63 5 -63 10 0 10 92 8 110 -3z m141 -10 c6 0 7 5 4 10 -3 6 -1 10 5 10
18 0 6 -25 -13 -28 -11 -2 -17 3 -16 15 0 10 3 13 6 6 2 -7 9 -13 14 -13z
m209 7 c0 6 9 9 20 6 34 -9 22 -21 -20 -20 -39 1 -53 11 -27 20 6 2 15 -1 19
-7 6 -8 8 -8 8 1z m293 7 c-7 -3 -9 -12 -6 -20 3 -8 0 -14 -6 -14 -12 0 -15
23 -4 33 3 4 11 7 17 6 7 0 6 -2 -1 -5z m1369 -36 c-10 -22 -11 -21 -9 9 1 21
5 29 11 23 6 -6 5 -18 -2 -32z m928 -15 c0 -7 -10 -14 -22 -14 -19 -1 -19 -2
-5 -6 11 -3 16 -11 13 -19 -3 -8 -1 -14 3 -14 5 0 11 5 13 12 3 7 7 6 11 -5 4
-12 1 -17 -11 -17 -15 0 -15 -2 -2 -10 13 -8 12 -10 -2 -10 -10 0 -18 7 -18
15 0 21 -13 19 -30 -5 -8 -11 -21 -20 -30 -20 -9 0 -11 3 -5 8 6 4 10 16 9 27
0 11 6 28 14 38 9 9 13 20 9 23 -3 3 2 14 11 24 15 18 16 18 28 2 8 -9 14 -23
14 -29z m-2265 27 c3 -5 2 -10 -4 -10 -5 0 -13 5 -16 10 -3 6 -2 10 4 10 5 0
13 -4 16 -10z m969 -6 c3 -8 2 -12 -4 -9 -6 3 -10 10 -10 16 0 14 7 11 14 -7z
m31 7 c3 -5 2 -12 -3 -15 -5 -3 -9 1 -9 9 0 17 3 19 12 6z m410 -1 c3 -5 -1
-10 -10 -10 -9 0 -13 5 -10 10 3 6 8 10 10 10 2 0 7 -4 10 -10z m-1660 -10
c-3 -5 -10 -10 -16 -10 -5 0 -9 5 -9 10 0 6 7 10 16 10 8 0 12 -4 9 -10z m150
0 c-3 -5 -10 -10 -16 -10 -5 0 -9 5 -9 10 0 6 7 10 16 10 8 0 12 -4 9 -10z
m1213 -20 l4 -25 -20 22 c-10 13 -22 20 -26 16 -3 -3 -6 -1 -6 6 0 7 10 11 23
9 15 -2 23 -11 25 -28z m-1178 -1 c0 -5 -4 -9 -10 -9 -5 0 -10 7 -10 16 0 8 5
12 10 9 6 -3 10 -10 10 -16z m1000 -1 c0 -6 -3 -8 -7 -5 -3 4 -12 2 -20 -4 -8
-8 -13 -8 -13 -1 0 10 15 19 33 21 4 1 7 -4 7 -11z m105 2 c3 -5 1 -10 -4 -10
-6 0 -11 5 -11 10 0 6 2 10 4 10 3 0 8 -4 11 -10z m112 4 c-3 -3 -12 -4 -19
-1 -8 3 -5 6 6 6 11 1 17 -2 13 -5z m250 -16 c-3 -8 -6 -5 -6 6 -1 11 2 17 5
13 3 -3 4 -12 1 -19z m180 0 c-3 -8 -6 -5 -6 6 -1 11 2 17 5 13 3 -3 4 -12 1
-19z m191 9 c6 -7 7 -18 3 -26 -9 -13 -13 -9 -24 22 -7 20 6 23 21 4z m-552
-22 c-1 -33 -16 -33 -16 0 0 14 4 25 9 25 5 0 8 -11 7 -25z m207 10 c-3 -9 -8
-14 -10 -11 -3 3 -2 9 2 15 9 16 15 13 8 -4z m748 -18 c-8 -8 -11 -7 -11 4 0
9 3 19 7 23 4 4 9 2 11 -4 3 -7 -1 -17 -7 -23z m114 23 c3 -5 1 -10 -4 -10 -6
0 -11 5 -11 10 0 6 2 10 4 10 3 0 8 -4 11 -10z m-2205 -10 c0 -5 -7 -7 -15 -4
-8 4 -15 8 -15 10 0 2 7 4 15 4 8 0 15 -4 15 -10z m977 -12 c2 -18 0 -20 -7
-8 -9 13 -11 13 -20 0 -6 -9 -10 -10 -10 -3 0 7 8 17 18 22 9 6 17 11 17 11 1
0 2 -10 2 -22z m37 6 c8 -22 8 -24 -6 -24 -6 0 -8 3 -5 7 4 3 2 12 -4 20 -7 8
-8 13 -1 13 5 0 13 -7 16 -16z m43 -2 c-18 -19 -23 -37 -9 -28 4 2 8 -4 8 -15
0 -10 -4 -19 -8 -19 -4 0 -8 -5 -8 -11 0 -5 6 -7 13 -3 9 5 9 3 -1 -7 -11 -12
-14 -12 -22 1 -9 13 -10 13 -10 0 0 -9 -8 -16 -19 -16 -16 0 -14 4 10 27 32
30 37 41 14 33 -12 -5 -12 -2 1 25 9 17 23 31 31 31 14 0 14 -2 0 -18z m173 1
c0 -3 -6 -3 -14 0 -7 3 -20 0 -27 -6 -11 -10 -11 -9 0 5 11 15 41 15 41 1z
m282 -25 c-6 -6 -7 0 -4 19 5 21 7 23 10 9 2 -10 0 -22 -6 -28z m218 22 c0 -5
-6 -13 -12 -17 -7 -4 -13 -14 -13 -22 0 -8 -7 -16 -15 -18 -9 -3 -11 -1 -5 4
6 4 10 14 11 21 1 6 2 19 3 27 1 16 31 21 31 5z m159 -24 c0 -7 -2 -6 -6 2 -6
16 -23 6 -23 -14 0 -9 5 -12 12 -8 7 4 8 3 4 -5 -4 -6 -12 -9 -17 -6 -5 4 -9
-1 -9 -9 0 -9 8 -16 17 -16 9 0 14 -3 10 -6 -3 -3 -14 -3 -25 0 -18 6 -18 9
-4 51 12 37 17 43 28 34 8 -6 14 -17 13 -23z m132 1 c-8 -8 -11 -7 -11 4 0 9
3 19 7 23 4 4 9 2 11 -4 3 -7 -1 -17 -7 -23z m-1088 3 c9 -11 13 -20 7 -20 -5
0 -14 9 -20 20 -6 11 -9 20 -8 20 2 0 11 -9 21 -20z m983 -32 c-7 -12 -12 -14
-18 -5 -4 6 -2 14 3 18 6 3 9 10 8 15 -4 21 3 27 10 9 5 -11 3 -27 -3 -37z
m381 30 c-3 -8 -6 -5 -6 6 -1 11 2 17 5 13 3 -3 4 -12 1 -19z m318 3 c-3 -6
-11 -11 -17 -11 -6 0 -6 6 2 15 14 17 26 13 15 -4z m-1758 2 c-9 -9 -58 -13
-53 -5 3 5 17 10 31 10 14 0 24 -2 22 -5z m-87 -13 c-8 -5 -22 -9 -30 -9 -10
0 -8 3 5 9 27 12 43 12 25 0z m822 3 c-6 -2 -10 -9 -7 -14 4 -5 -1 -6 -9 -3
-20 8 -11 24 12 23 11 0 12 -2 4 -6z m193 -13 c-8 -24 1 -26 22 -5 8 9 18 13
22 10 3 -4 -5 -16 -19 -27 -14 -12 -26 -15 -28 -9 -3 8 -9 8 -23 1 -13 -7 -19
-7 -19 0 0 5 8 10 17 10 9 0 13 3 10 7 -4 3 -2 12 4 20 16 19 21 16 14 -7z
m-1208 -10 c1 -11 -2 -20 -8 -20 -10 0 -12 23 -2 33 9 9 9 10 10 -13z m123 10
c-18 -12 -30 -13 -30 -2 0 4 10 9 22 9 18 2 20 0 8 -7z m1521 -17 c-8 -15 -10
-15 -11 -2 0 17 10 32 18 25 2 -3 -1 -13 -7 -23z m-2177 2 c-7 -16 -24 -21
-24 -6 0 8 7 13 27 20 1 1 0 -6 -3 -14z m776 7 c0 -5 -7 -9 -15 -9 -8 0 -15 4
-15 9 0 4 7 8 15 8 8 0 15 -4 15 -8z m844 -8 c3 -8 2 -12 -4 -9 -6 3 -10 10
-10 16 0 14 7 11 14 -7z m397 -7 c-10 -9 -11 -8 -5 6 3 10 9 15 12 12 3 -3 0
-11 -7 -18z m266 -10 c18 -16 20 -24 12 -39 -11 -20 -11 -20 -33 1 -26 25 -46
27 -46 6 0 -8 -4 -15 -10 -15 -13 0 -13 6 2 47 10 27 16 32 33 27 11 -4 30
-15 42 -27z m-2220 5 c-6 -8 -13 -10 -15 -4 -1 5 -13 8 -25 5 -18 -4 -19 -3
-7 6 8 6 25 10 37 9 18 -2 20 -5 10 -16z m653 10 c0 -4 -11 -8 -25 -8 -33 -2
-33 11 0 14 14 1 25 -2 25 -6z m210 4 c0 -2 -9 -6 -20 -9 -11 -3 -20 -1 -20 4
0 5 9 9 20 9 11 0 20 -2 20 -4z m125 -6 c-4 -6 -2 -17 4 -24 8 -9 7 -13 -3
-13 -7 0 -12 9 -11 21 3 25 3 26 11 26 3 0 2 -5 -1 -10z m85 6 c0 -3 -4 -8
-10 -11 -5 -3 -10 -1 -10 4 0 6 5 11 10 11 6 0 10 -2 10 -4z m-830 -21 c0 -8
-7 -15 -15 -15 -8 0 -15 5 -15 11 0 5 5 7 10 4 6 -3 10 -1 10 4 0 6 2 11 5 11
3 0 5 -7 5 -15z m163 2 c4 3 7 -2 8 -13 0 -18 1 -18 9 1 5 11 9 16 10 10 8
-60 7 -85 0 -90 -6 -4 -7 1 -3 11 5 12 3 15 -6 9 -10 -5 -11 -2 -6 14 5 15 2
21 -10 21 -9 0 -13 5 -10 10 3 6 -1 13 -9 16 -9 3 -16 11 -16 16 0 7 5 6 13
-1 8 -6 17 -8 20 -4z m1437 -29 c0 -5 -4 -8 -10 -8 -5 0 -10 10 -10 23 0 18 2
19 10 7 5 -8 10 -18 10 -22z m-1961 -17 c-1 -13 -2 -13 -6 2 -2 9 -9 17 -14
17 -5 0 -9 5 -9 11 0 8 5 8 15 -1 8 -7 14 -20 14 -29z m641 17 c0 -5 -5 -6
-10 -3 -6 4 -17 1 -25 -5 -15 -12 -35 -6 -35 12 0 5 7 8 15 5 8 -4 17 -2 20 3
7 11 35 2 35 -12z m165 12 c-3 -5 1 -10 9 -10 17 0 21 -27 7 -49 -5 -7 -14
-11 -20 -7 -7 4 -9 1 -5 -8 4 -10 0 -13 -13 -11 -10 2 -21 4 -24 4 -4 1 -9 16
-11 35 -3 24 0 32 9 29 7 -3 13 -10 13 -16 0 -6 3 -7 7 -4 3 4 12 2 20 -4 10
-9 13 -8 13 5 0 9 -4 16 -10 16 -5 0 -10 7 -10 15 0 8 5 15 11 15 5 0 7 -4 4
-10z m74 -46 c-14 -17 -38 -7 -36 16 1 10 5 16 11 13 5 -4 7 2 3 13 -6 15 -3
14 13 -5 15 -18 18 -27 9 -37z m-832 24 c-3 -8 -6 -5 -6 6 -1 11 2 17 5 13 3
-3 4 -12 1 -19z m646 -19 c22 -18 16 -39 -11 -38 -11 0 -12 3 -4 6 21 8 13 19
-15 18 -15 0 -28 6 -30 15 -4 13 -3 13 6 1 8 -12 11 -9 17 14 5 18 9 24 12 15
2 -8 14 -22 25 -31z m387 31 c0 -5 -8 -10 -17 -10 -15 0 -16 2 -3 10 19 12 20
12 20 0z m-805 -10 c-3 -5 -12 -10 -18 -10 -7 0 -6 4 3 10 19 12 23 12 15 0z
m452 -12 c1 -10 0 -18 -2 -18 -2 0 -9 8 -14 18 -7 14 -6 19 3 19 6 0 13 -9 13
-19z m-572 2 c3 -5 1 -10 -4 -10 -6 0 -11 5 -11 10 0 6 2 10 4 10 3 0 8 -4 11
-10z m768 -5 c-3 -9 -8 -14 -10 -11 -3 3 -2 9 2 15 9 16 15 13 8 -4z m437 11
c0 -2 -7 -6 -15 -10 -8 -3 -15 -1 -15 4 0 6 7 10 15 10 8 0 15 -2 15 -4z
m1020 -6 c0 -5 -5 -10 -11 -10 -5 0 -7 5 -4 10 3 6 8 10 11 10 2 0 4 -4 4 -10z
m-2072 -14 c-2 -1 -10 -7 -20 -14 -12 -10 -18 -10 -24 -1 -4 8 -3 9 5 5 6 -4
14 0 17 8 3 9 10 13 16 10 5 -3 8 -7 6 -8z m315 -7 c4 -16 3 -18 -9 -8 -7 6
-11 15 -8 20 8 13 11 11 17 -12z m387 7 c0 -3 -7 -12 -16 -21 -14 -13 -19 -14
-25 -3 -7 10 -9 8 -9 -6 0 -14 -6 -17 -25 -14 -17 4 -25 1 -25 -8 0 -8 -6 -11
-16 -7 -15 6 -15 8 2 19 10 7 25 18 32 24 9 8 12 7 12 -2 0 -9 2 -10 8 -2 4 7
18 14 32 17 14 2 26 5 28 6 1 0 2 -1 2 -3z m-506 -15 c-9 -9 -34 -9 -34 -1 0
5 9 8 20 7 10 -1 17 -3 14 -6z m-485 -31 c6 0 11 -4 11 -9 0 -6 -9 -8 -20 -6
-13 2 -20 -2 -20 -11 0 -8 4 -13 9 -10 5 4 7 -3 4 -14 -8 -31 -15 -17 -19 37
-3 42 -1 46 10 31 7 -10 18 -18 25 -18z m426 21 c3 -5 1 -12 -5 -16 -5 -3 -10
1 -10 9 0 18 6 21 15 7z m142 -13 c-3 -8 -6 -5 -6 6 -1 11 2 17 5 13 3 -3 4
-12 1 -19z m153 7 c0 -8 -7 -15 -15 -15 -26 0 -18 20 13 29 1 1 2 -6 2 -14z
m360 -20 c0 -5 -5 -3 -10 5 -5 8 -10 20 -10 25 0 6 5 3 10 -5 5 -8 10 -19 10
-25z m200 13 c0 -19 -2 -20 -10 -8 -13 19 -13 30 0 30 6 0 10 -10 10 -22z
m216 -4 c-4 -9 -9 -15 -11 -12 -3 3 -3 13 1 22 4 9 9 15 11 12 3 -3 3 -13 -1
-22z m-1286 6 c0 -5 -4 -10 -10 -10 -5 0 -10 5 -10 10 0 6 5 10 10 10 6 0 10
-4 10 -10z m404 -7 c8 3 18 2 21 -3 4 -6 0 -10 -9 -10 -8 0 -21 -3 -30 -6 -12
-5 -16 0 -16 17 0 18 3 20 9 10 5 -8 16 -11 25 -8z m516 13 c0 -3 -4 -8 -10
-11 -5 -3 -10 -1 -10 4 0 6 5 11 10 11 6 0 10 -2 10 -4z m-570 -41 c0 -5 -5
-3 -10 5 -5 8 -10 20 -10 25 0 6 5 3 10 -5 5 -8 10 -19 10 -25z m625 25 c-3
-5 -12 -10 -18 -10 -7 0 -6 4 3 10 19 12 23 12 15 0z m650 0 c3 -6 -1 -7 -9
-4 -18 7 -21 14 -7 14 6 0 13 -4 16 -10z m-1745 -10 c0 -5 -7 -10 -16 -10 -8
0 -12 5 -9 10 3 6 10 10 16 10 5 0 9 -4 9 -10z m616 0 c8 0 14 -9 14 -20 0
-11 -5 -20 -11 -20 -5 0 -8 -4 -4 -9 3 -5 0 -13 -6 -17 -8 -4 -9 -3 -5 4 4 7
2 12 -3 12 -18 0 -12 18 7 22 15 3 14 6 -5 16 -21 12 -23 11 -23 -10 -1 -21
-2 -21 -11 -5 -12 21 -2 40 18 33 8 -3 21 -6 29 -6z m267 -3 c4 -10 -2 -13
-21 -9 -24 5 -25 6 -7 13 11 4 21 8 21 8 1 1 4 -5 7 -12z m637 6 c-8 -3 -21
-10 -28 -16 -9 -7 -11 -6 -6 7 3 9 16 16 28 15 14 0 16 -2 6 -6z m-64 -16 c8
3 14 0 14 -7 0 -15 -33 -9 -36 8 -1 7 0 8 2 3 3 -6 12 -7 20 -4z m724 3 c0 -5
-6 -10 -14 -10 -8 0 -18 5 -21 10 -3 6 3 10 14 10 12 0 21 -4 21 -10z m-2400
-35 c0 -13 -5 -27 -12 -31 -8 -5 -9 -2 -5 9 5 13 1 17 -16 18 l-22 2 22 4 c15
3 20 9 16 20 -4 11 -2 14 5 9 7 -4 12 -18 12 -31z m569 22 c9 3 12 1 6 -4 -5
-4 -12 -11 -15 -15 -3 -4 -12 3 -19 15 -9 15 -10 18 -1 10 7 -6 20 -9 29 -6z
m-385 -13 c-10 -8 -14 -13 -7 -10 6 4 15 1 18 -5 8 -12 6 -15 -22 -23 -18 -6
-20 -4 -16 14 3 12 0 20 -6 20 -7 0 -9 5 -6 10 3 6 18 10 33 10 25 0 25 0 6
-16z m37 -47 c-8 -8 -11 0 -10 29 1 39 1 39 11 11 7 -21 7 -32 -1 -40z m1519
59 c0 -2 -7 -7 -16 -10 -8 -3 -12 -2 -9 4 6 10 25 14 25 6z m-3110 -15 c0 -6
-9 -9 -19 -8 -11 0 -17 5 -15 9 7 11 34 10 34 -1z m1621 -5 c5 3 9 -2 9 -10 0
-8 -4 -18 -10 -21 -5 -3 -10 -2 -10 4 0 5 -2 15 -3 23 -2 7 -2 10 0 5 3 -4 9
-5 14 -1z m456 8 c-3 -3 -12 -4 -19 -1 -8 3 -5 6 6 6 11 1 17 -2 13 -5z m73 2
c0 -2 -7 -7 -16 -10 -8 -3 -12 -2 -9 4 6 10 25 14 25 6z m122 -3 c-6 -2 -10
-8 -8 -12 3 -4 1 -13 -3 -20 -6 -9 -8 -4 -8 13 0 18 5 26 16 25 10 0 12 -2 3
-6z m128 -3 c0 -5 -8 -10 -17 -10 -15 0 -16 2 -3 10 19 12 20 12 20 0z m123
-5 c4 -8 1 -17 -6 -21 -7 -4 -9 -4 -5 1 4 4 3 14 -3 22 -7 8 -8 13 -1 13 5 0
12 -7 15 -15z m303 8 c-3 -4 -17 -8 -29 -10 -17 -2 -19 -1 -7 7 17 11 47 14
36 3z m334 3 c0 -3 -4 -8 -10 -11 -5 -3 -10 -1 -10 4 0 6 5 11 10 11 6 0 10
-2 10 -4z m-553 -28 c-3 -8 -6 -5 -6 6 -1 11 2 17 5 13 3 -3 4 -12 1 -19z m24
-1 c-10 -9 -11 -8 -5 6 3 10 9 15 12 12 3 -3 0 -11 -7 -18z m239 8 c0 -8 -7
-15 -15 -15 -13 0 -14 3 -3 15 16 18 18 18 18 0z m-2915 -5 c3 -5 1 -10 -4
-10 -6 0 -11 5 -11 10 0 6 2 10 4 10 3 0 8 -4 11 -10z m1448 -5 c-3 -9 -8 -14
-10 -11 -3 3 -2 9 2 15 9 16 15 13 8 -4z m1567 -5 c-6 -11 -12 -20 -14 -20 -2
0 -2 9 1 20 3 11 9 20 15 20 5 0 4 -9 -2 -20z m95 10 c-3 -5 -12 -10 -18 -10
-7 0 -6 4 3 10 19 12 23 12 15 0z m-3081 -15 c3 -8 1 -15 -4 -15 -6 0 -10 7
-10 15 0 8 2 15 4 15 2 0 6 -7 10 -15z m2406 11 c0 -3 -4 -8 -10 -11 -5 -3
-10 -1 -10 4 0 6 5 11 10 11 6 0 10 -2 10 -4z m433 -12 c-3 -8 -12 -13 -20
-10 -8 3 -20 6 -26 7 -7 1 -1 5 13 9 37 12 40 11 33 -6z m-1493 -4 c0 -5 -4
-10 -10 -10 -5 0 -10 5 -10 10 0 6 5 10 10 10 6 0 10 -4 10 -10z m161 -13
c-10 -9 -11 -8 -5 6 3 10 9 15 12 12 3 -3 0 -11 -7 -18z m749 13 c0 -5 -2 -10
-4 -10 -3 0 -8 5 -11 10 -3 6 -1 10 4 10 6 0 11 -4 11 -10z m906 -10 c0 -11
-4 -20 -8 -20 -4 0 -8 9 -8 20 0 11 4 20 8 20 4 0 8 -9 8 -20z m-1229 4 c-3
-3 -12 -4 -19 -1 -8 3 -5 6 6 6 11 1 17 -2 13 -5z m-1827 -25 c0 -6 -4 -7 -10
-4 -5 3 -10 11 -10 16 0 6 5 7 10 4 6 -3 10 -11 10 -16z m1208 3 c2 -6 -5 -9
-14 -8 -10 2 -20 8 -22 14 -2 6 5 9 14 8 10 -2 20 -8 22 -14z m1142 8 c0 -5
-2 -10 -4 -10 -3 0 -8 5 -11 10 -3 6 -1 10 4 10 6 0 11 -4 11 -10z m-400 -4
c0 -3 -4 -8 -10 -11 -5 -3 -10 -1 -10 4 0 6 5 11 10 11 6 0 10 -2 10 -4z m860
-16 c0 -21 -15 -27 -25 -10 -3 6 0 10 7 10 9 0 9 3 -2 10 -13 8 -12 10 3 10
10 0 17 -8 17 -20z m-1685 0 c3 -5 1 -10 -4 -10 -6 0 -11 5 -11 10 0 6 2 10 4
10 3 0 8 -4 11 -10z m2169 -6 c3 -8 2 -12 -4 -9 -6 3 -10 1 -10 -6 0 -7 -2
-10 -5 -7 -5 5 4 38 10 38 2 0 6 -7 9 -16z m-628 -21 c-10 -10 -19 5 -10 18 6
11 8 11 12 0 2 -7 1 -15 -2 -18z m1135 -64 c-11 -41 -20 -65 -20 -55 -1 22 30
138 35 133 2 -2 -5 -37 -15 -78z m-2751 62 c0 -5 -7 -12 -16 -15 -14 -5 -15
-4 -4 9 14 17 20 19 20 6z m1750 -5 c0 -3 -4 -8 -10 -11 -5 -3 -10 -1 -10 4 0
6 5 11 10 11 6 0 10 -2 10 -4z m-493 -38 c-3 -7 -5 -2 -5 12 0 14 2 19 5 13 2
-7 2 -19 0 -25z m-1307 12 c0 -5 -7 -10 -16 -10 -8 0 -12 5 -9 10 3 6 10 10
16 10 5 0 9 -4 9 -10z m1357 -6 c-3 -3 -12 -4 -19 -1 -8 3 -5 6 6 6 11 1 17
-2 13 -5z m-1237 -8 c0 -3 -4 -8 -10 -11 -5 -3 -10 -1 -10 4 0 6 5 11 10 11 6
0 10 -2 10 -4z m2542 -121 c5 -21 6 -45 4 -52 -3 -7 -1 -13 4 -13 6 0 10 -4
10 -9 0 -15 -80 -25 -93 -12 -8 8 0 11 29 12 l39 2 -39 6 c-25 4 -40 12 -42
22 -1 9 -5 30 -9 47 -6 28 -4 31 22 34 61 8 67 5 75 -37z m-3187 25 c-3 -5
-12 -7 -20 -3 -21 7 -19 13 6 13 11 0 18 -4 14 -10z m50 -10 c3 -5 -3 -10 -14
-10 -12 0 -21 5 -21 10 0 6 6 10 14 10 8 0 18 -4 21 -10z m3162 -42 c-3 -7 -5
-2 -5 12 0 14 2 19 5 13 2 -7 2 -19 0 -25z m-3088 19 c-10 -9 -59 -17 -59 -9
0 4 14 9 32 10 18 2 30 1 27 -1z m3183 -54 c-7 -65 -12 -67 -12 -5 0 29 4 52
9 52 5 0 6 -21 3 -47z m-27 -60 c1 -16 5 -41 9 -58 6 -23 5 -26 -3 -13 -13 20
-27 116 -16 106 5 -5 9 -20 10 -35z m-75 18 c0 -13 -76 -25 -92 -14 -9 5 1 10
27 14 62 10 65 10 65 0z m-1795 -21 c-3 -5 -12 -10 -18 -10 -7 0 -6 4 3 10 19
12 23 12 15 0z m99 -42 c4 7 5 20 2 28 -3 9 -1 12 4 9 6 -3 10 -15 10 -26 0
-21 1 -22 24 -13 9 3 16 12 16 19 0 17 34 25 51 13 11 -8 11 -9 -2 -5 -26 8
-43 -8 -30 -29 9 -17 10 -17 11 -1 0 11 8 17 23 18 12 0 30 2 40 4 9 2 17 -3
17 -11 0 -8 6 -11 15 -8 8 4 15 10 15 16 0 5 -4 6 -10 3 -5 -3 -10 -1 -10 4 0
17 18 13 29 -6 8 -14 10 -15 11 -3 0 13 2 13 9 0 13 -19 3 -34 -14 -20 -9 8
-15 8 -20 0 -3 -5 -1 -10 5 -10 6 0 9 -4 5 -9 -7 -13 8 -22 21 -13 6 4 16 16
23 27 11 18 11 18 5 -5 l-6 -25 23 27 c21 25 23 26 35 10 12 -16 13 -16 14 2
0 11 3 17 6 14 3 -4 4 -8 2 -11 -4 -6 33 -47 42 -47 4 0 5 11 3 24 -4 19 0 24
21 28 16 3 27 0 30 -9 8 -20 26 -6 26 19 0 17 2 19 16 7 13 -10 17 -10 25 2 8
12 11 11 20 -4 6 -9 14 -15 20 -12 5 4 6 -2 2 -11 -5 -13 -3 -15 7 -9 8 5 11
3 8 -6 -3 -8 -11 -13 -17 -11 -8 1 -8 -4 1 -18 12 -19 13 -19 26 5 7 14 20 25
28 25 8 0 13 -4 10 -8 -2 -4 0 -14 6 -22 8 -12 9 -12 4 2 -3 10 -1 20 4 23 6
4 10 18 10 33 0 19 3 23 9 13 5 -7 14 -10 20 -7 6 4 11 2 11 -3 0 -6 -7 -11
-16 -11 -8 0 -12 -5 -9 -10 4 -6 11 -8 16 -4 5 3 8 1 7 -4 -2 -6 2 -10 7 -10
6 0 9 4 8 9 -2 5 2 9 7 9 6 0 10 -6 11 -12 0 -9 2 -9 6 1 5 11 7 11 14 0 7
-11 9 -11 9 -1 0 7 5 10 12 6 8 -5 9 0 6 14 -4 12 -2 22 3 22 5 0 9 -7 9 -15
0 -9 7 -18 15 -21 8 -4 15 -12 15 -20 0 -8 5 -14 10 -14 6 0 15 -10 20 -22 8
-21 9 -20 9 8 1 34 61 112 61 80 0 -23 15 -20 34 7 9 12 15 17 12 12 -2 -6 2
-21 10 -35 7 -14 14 -20 14 -15 0 6 7 -1 15 -15 8 -14 15 -20 15 -15 6 48 5
55 -7 55 -7 0 -13 5 -13 10 0 6 14 10 31 10 24 0 30 -4 25 -15 -7 -19 1 -19
21 0 8 8 19 12 24 9 6 -3 3 -12 -8 -19 -14 -11 -15 -15 -4 -29 7 -9 17 -13 22
-10 5 3 4 -7 -1 -21 -15 -39 -11 -55 5 -20 10 21 14 25 15 11 0 -15 3 -16 15
-6 16 14 21 35 5 25 -5 -3 -5 7 1 25 13 36 22 40 13 5 -4 -15 -2 -25 5 -25 6
0 11 7 11 16 0 8 4 13 9 10 5 -3 12 1 15 10 4 9 9 14 13 11 3 -4 13 -1 21 5
13 11 14 8 7 -21 -5 -23 -4 -31 4 -27 6 4 11 14 11 22 0 8 5 14 10 14 16 0 12
-13 -15 -44 -25 -29 -26 -49 -1 -40 9 3 11 -3 8 -26 -2 -16 -9 -30 -14 -30 -6
0 -8 9 -5 20 3 11 2 20 -3 20 -4 0 -10 -9 -13 -21 -3 -12 -10 -18 -16 -14 -7
4 -11 -3 -11 -17 0 -16 -3 -19 -8 -10 -5 7 -16 10 -25 6 -10 -3 -17 -1 -17 6
0 7 -6 6 -16 -4 -19 -20 -54 -21 -54 -2 0 7 -7 19 -15 26 -13 11 -14 10 -10
-1 3 -8 -1 -23 -10 -34 -15 -20 -15 -20 -9 0 5 18 3 17 -15 -4 -17 -19 -21
-20 -21 -7 0 10 -4 15 -9 12 -14 -9 -24 48 -17 97 l6 42 -13 -33 c-7 -18 -18
-37 -26 -41 -10 -7 -9 -9 3 -14 21 -8 20 -19 -4 -47 -18 -21 -20 -21 -26 -5
-7 16 -8 15 -16 -6 -5 -14 -12 -19 -16 -13 -4 6 -17 16 -28 22 -17 9 -24 8
-34 -3 -17 -21 -30 -19 -30 5 0 11 -4 20 -10 20 -5 0 -10 -11 -10 -25 0 -26
-14 -31 -40 -15 -8 5 -19 5 -25 0 -19 -16 -70 4 -70 28 0 11 -4 24 -8 28 -4 4
-7 -4 -7 -18 0 -17 -7 -27 -20 -31 -11 -3 -20 -1 -20 4 0 14 -30 11 -31 -3 0
-10 -2 -10 -5 -1 -3 7 -12 9 -20 6 -9 -3 -14 2 -15 13 0 18 -1 17 -9 -1 -7
-17 -9 -17 -9 -2 -1 20 -21 23 -21 3 0 -9 -7 -12 -20 -9 -11 3 -20 10 -20 17
0 6 -5 4 -10 -4 -8 -13 -10 -13 -10 0 0 11 -3 11 -12 2 -18 -18 -58 -15 -65 5
-6 15 -7 15 -14 -3 -6 -15 -8 -16 -8 -3 -1 12 -9 16 -33 14 -35 -3 -81 36 -71
61 3 8 2 14 -1 14 -16 0 -23 -46 -10 -61 12 -14 11 -15 -16 -11 -17 2 -30 8
-30 12 0 4 -12 10 -26 13 -20 3 -24 1 -20 -12 6 -15 5 -15 -6 0 -13 16 -43 15
-32 -2 8 -14 -3 -11 -20 7 -9 8 -16 11 -16 5 0 -16 -26 -13 -40 3 -6 8 -18 12
-27 9 -26 -10 -32 17 -9 42 14 16 23 20 28 12 6 -9 8 -9 8 1 0 10 5 10 20 2
16 -8 20 -8 20 4 0 8 -4 16 -9 18 -5 2 -7 17 -3 33 l6 30 6 -30 c4 -21 8 -26
14 -17z m1691 26 c-29 -7 -85 -9 -85 -3 0 9 70 17 85 10 6 -3 6 -6 0 -7z
m-1948 0 c-3 -3 -12 -4 -19 -1 -8 3 -5 6 6 6 11 1 17 -2 13 -5z m1064 -17
c-10 -9 -11 -8 -5 6 3 10 9 15 12 12 3 -3 0 -11 -7 -18z m-917 6 c-5 -5 -12
-12 -16 -18 -4 -6 -8 -2 -8 8 0 9 7 17 17 17 9 0 12 -3 7 -7z m476 3 c0 -11
-19 -15 -25 -6 -3 5 1 10 9 10 9 0 16 -2 16 -4z m-420 -26 c0 -5 -7 -7 -15 -4
-9 4 -19 -3 -26 -20 -12 -26 -29 -35 -29 -16 0 6 5 10 11 10 6 0 9 6 6 13 -2
6 5 17 17 24 21 12 36 9 36 -7z m840 16 c0 -3 -4 -8 -10 -11 -5 -3 -10 -1 -10
4 0 6 5 11 10 11 6 0 10 -2 10 -4z m1028 -71 c0 -16 -2 -15 -8 5 -4 14 -8 36
-8 50 0 22 1 22 8 -5 4 -16 8 -39 8 -50z m-8611 43 c-3 -8 -6 -5 -6 6 -1 11 2
17 5 13 3 -3 4 -12 1 -19z m7863 12 c0 -5 -4 -10 -10 -10 -5 0 -10 5 -10 10 0
6 5 10 10 10 6 0 10 -4 10 -10z m-1800 -20 c0 -5 -5 -10 -11 -10 -5 0 -7 5 -4
10 3 6 8 10 11 10 2 0 4 -4 4 -10z m510 -10 c0 -14 6 -19 21 -17 11 2 25 10
30 18 7 11 9 9 9 -9 0 -13 -4 -20 -10 -17 -5 3 -10 1 -10 -5 0 -6 -4 -9 -9 -5
-5 3 -12 -3 -16 -14 -3 -11 -15 -18 -28 -18 -20 0 -22 4 -21 36 3 52 3 51 19
51 8 0 15 -9 15 -20z m1568 -18 c5 -31 -15 -27 -21 3 -3 16 0 24 7 22 6 -2 12
-13 14 -25z m-78 9 c0 -5 3 -18 6 -28 5 -16 4 -16 -10 1 -18 23 -20 36 -6 36
6 0 10 -4 10 -9z m50 -45 c0 -5 8 -15 18 -22 10 -8 12 -13 5 -14 -18 0 -50 38
-56 68 l-5 26 19 -25 c10 -13 19 -28 19 -33z m-2077 19 c-3 -9 -8 -14 -10 -11
-3 3 -2 9 2 15 9 16 15 13 8 -4z m627 -1 c0 -8 -5 -12 -10 -9 -6 4 -8 11 -5
16 9 14 15 11 15 -7z m-520 -19 c0 -14 3 -24 8 -22 4 1 8 -2 10 -8 1 -5 -4
-10 -10 -10 -7 0 -16 -4 -20 -10 -4 -5 -10 -6 -15 -2 -4 5 -3 11 3 15 16 11
15 52 -2 45 -8 -3 -14 0 -14 6 0 6 9 11 20 11 15 0 20 -7 20 -25z m117 19 c-3
-3 -12 -4 -19 -1 -8 3 -5 6 6 6 11 1 17 -2 13 -5z m1794 -24 c5 0 9 -7 9 -16
0 -28 -25 -8 -27 22 -1 16 1 21 3 12 3 -10 10 -18 15 -18z m110 -13 c-8 -8
-11 -5 -11 9 0 27 14 41 18 19 2 -9 -1 -22 -7 -28z m-2096 3 c-4 -6 -11 -7
-17 -4 -7 4 -8 2 -4 -4 10 -17 32 -15 50 4 19 19 21 6 2 -18 -17 -24 -43 -23
-56 1 -14 27 -13 31 11 31 11 0 17 -5 14 -10z m222 -3 c0 -7 -9 -14 -20 -14
-19 -2 -19 -2 -1 12 11 8 19 15 20 15 0 0 1 -6 1 -13z m-39 -42 c-3 -3 -9 2
-12 12 -6 14 -5 15 5 6 7 -7 10 -15 7 -18z m-58 11 c0 -2 -7 -7 -16 -10 -8 -3
-12 -2 -9 4 6 10 25 14 25 6z m-41 -35 c-15 -5 -22 6 -14 19 6 9 10 9 16 -1 5
-8 4 -15 -2 -18z m-1595 -42 c-14 -22 -20 -41 -14 -44 14 -9 32 4 24 17 -4 7
-2 8 4 4 6 -4 23 1 37 10 23 15 25 15 25 -1 0 -17 -136 -165 -152 -165 -17 0
-7 35 17 60 l25 27 -35 11 c-31 9 -34 8 -24 -4 6 -8 7 -14 2 -14 -12 0 -35
-49 -28 -60 7 -11 -5 -40 -17 -40 -5 0 -6 4 -3 10 3 5 -1 21 -10 34 -22 34
-14 54 42 101 27 22 64 57 83 77 43 45 58 30 24 -23z m1450 45 c3 -8 2 -12 -4
-9 -6 3 -10 10 -10 16 0 14 7 11 14 -7z m36 -19 c0 -5 -5 -3 -10 5 -5 8 -10
20 -10 25 0 6 5 3 10 -5 5 -8 10 -19 10 -25z m67 0 c1 -17 -1 -22 -4 -11 -4
15 -7 16 -14 5 -7 -12 -9 -11 -9 2 0 9 -10 21 -22 27 -21 11 -20 11 12 9 31
-2 35 -5 37 -32z m-6110 -57 c-3 -7 -5 -2 -5 12 0 14 2 19 5 13 2 -7 2 -19 0
-25z m6047 23 c15 -6 11 -9 -20 -19 -21 -6 -40 -9 -43 -6 -3 3 5 7 18 11 17 4
19 8 9 14 -10 7 -10 9 2 8 8 0 23 -4 34 -8z m-74 -31 c0 -5 -4 -10 -10 -10 -5
0 -10 5 -10 10 0 6 5 10 10 10 6 0 10 -4 10 -10z m-37 -7 c-7 -2 -19 -2 -25 0
-7 3 -2 5 12 5 14 0 19 -2 13 -5z m2782 -45 c42 -63 132 -154 198 -201 31 -22
55 -42 52 -45 -6 -7 -107 70 -159 121 -46 45 -96 109 -115 145 -19 36 -6 25
24 -20z m-115 -29 c0 -10 -4 -19 -10 -19 -19 0 -25 -2 -37 -12 -7 -6 -13 -7
-13 -4 0 4 -9 2 -20 -4 -12 -7 -17 -16 -13 -28 3 -9 -4 -5 -15 10 -12 14 -22
30 -22 35 0 15 61 45 81 40 10 -3 22 -1 25 4 8 14 24 0 24 -22z m-3892 -26
c14 -14 16 -27 3 -18 -5 3 -12 1 -16 -4 -3 -5 2 -14 12 -19 13 -8 20 -5 28 10
14 29 25 27 44 -8 10 -19 23 -30 34 -28 10 1 14 -2 11 -8 -7 -10 -73 -6 -106
7 -13 5 -15 2 -12 -12 4 -16 -1 -19 -37 -20 -46 -2 -82 20 -52 32 12 4 14 8 6
13 -16 10 -5 52 13 52 8 0 17 -7 20 -15 7 -16 24 -21 24 -6 0 5 -7 17 -16 25
-14 15 -13 16 8 14 13 -2 29 -8 36 -15z m149 -120 c-2 -21 -4 -6 -4 32 0 39 2
55 4 38 2 -18 2 -50 0 -70z m-27 79 c0 -5 -7 -9 -15 -9 -8 0 -15 4 -15 9 0 4
7 8 15 8 8 0 15 -4 15 -8z m47 -34 c-3 -8 -6 -5 -6 6 -1 11 2 17 5 13 3 -3 4
-12 1 -19z m17 -39 c-8 -14 -24 -10 -24 6 0 9 6 12 15 9 8 -4 12 -10 9 -15z
m-544 -25 c0 -17 -22 -14 -28 4 -2 7 3 12 12 12 9 0 16 -7 16 -16z m40 6 c0
-5 8 -7 18 -4 12 4 10 0 -7 -15 -31 -28 -41 -26 -39 4 2 23 28 37 28 15z m85
-32 c-8 -35 -22 -58 -36 -58 -5 0 -9 7 -9 15 0 8 5 15 10 15 6 0 9 3 8 8 -3 9
21 52 28 52 3 0 2 -15 -1 -32z m-97 -52 c-1 -13 3 -30 10 -38 10 -12 10 -18
-1 -26 -11 -9 -19 -5 -36 19 -22 29 -22 31 -5 50 23 26 36 24 32 -5z m3002 15
c0 -6 9 -8 20 -6 26 5 26 -11 -1 -18 -12 -3 -22 0 -26 9 -3 8 -10 11 -16 7 -6
-3 -7 -1 -3 5 9 14 26 16 26 3z m1625 -1 c3 -5 2 -10 -4 -10 -5 0 -13 5 -16
10 -3 6 -2 10 4 10 5 0 13 -4 16 -10z m-1744 -23 c-10 -9 -11 -8 -5 6 3 10 9
15 12 12 3 -3 0 -11 -7 -18z m-108 -35 c-9 -2 -11 -11 -8 -23 5 -14 2 -19 -11
-19 -13 0 -14 -3 -4 -14 9 -12 5 -16 -27 -22 -21 -3 -45 -13 -54 -21 -13 -11
-17 -11 -16 -1 1 36 -4 48 -22 48 -11 0 -23 5 -27 11 -4 8 1 9 16 4 19 -6 21
-4 15 14 -7 23 9 28 35 11 9 -6 19 -5 28 2 10 9 16 8 22 -2 7 -11 11 -11 24
-1 19 16 21 41 4 41 -9 0 -9 3 1 9 11 7 18 3 26 -12 8 -17 8 -23 -2 -25z
m1912 30 c-3 -3 -11 0 -18 7 -9 10 -8 11 6 5 10 -3 15 -9 12 -12z m-2052 -10
c-3 -7 -9 -10 -12 -5 -3 4 -10 11 -15 15 -4 4 1 6 12 5 12 -1 18 -6 15 -15z
m317 -29 c-11 -17 -11 -17 -6 0 3 10 6 24 7 30 0 9 2 9 5 0 3 -7 0 -20 -6 -30z
m105 27 c3 -5 1 -10 -4 -10 -6 0 -11 5 -11 10 0 6 2 10 4 10 3 0 8 -4 11 -10z
m1730 -9 c39 -11 59 -19 45 -19 -24 -1 -145 35 -125 37 6 0 42 -8 80 -18z
m-1945 5 c0 -3 -4 -8 -10 -11 -5 -3 -10 -1 -10 4 0 6 5 11 10 11 6 0 10 -2 10
-4z m64 -36 c-6 -6 -10 -3 -10 10 0 13 4 16 10 10 7 -7 7 -13 0 -20z m-357
-27 c13 -10 13 -12 -4 -10 -14 1 -19 9 -20 31 -1 18 1 23 4 11 3 -11 12 -25
20 -32z m5 25 c-7 -7 -12 -8 -12 -2 0 14 12 26 19 19 2 -3 -1 -11 -7 -17z
m-82 2 c0 -5 -4 -10 -10 -10 -5 0 -10 5 -10 10 0 6 5 10 10 10 6 0 10 -4 10
-10z m-36 -15 c3 -8 3 -15 0 -15 -3 0 -12 7 -20 15 -13 13 -13 15 -1 15 8 0
17 -7 21 -15z m3526 5 c0 -5 -4 -10 -10 -10 -5 0 -10 5 -10 10 0 6 5 10 10 10
6 0 10 -4 10 -10z m-3467 -13 c3 -8 -1 -14 -9 -14 -15 0 -18 9 -7 20 9 9 10 9
16 -6z m94 6 c-4 -3 -3 -11 2 -17 4 -6 11 -27 14 -46 3 -19 3 -29 0 -22 -2 6
-16 12 -30 12 -13 0 -31 6 -39 14 -15 16 -18 27 -6 25 33 -5 50 2 45 21 -3 12
0 20 8 20 7 0 9 -3 6 -7z m1940 -77 c-3 -16 -5 -13 -6 9 -2 26 -3 27 -11 10
-6 -15 -9 -9 -8 25 l0 45 14 -34 c8 -18 13 -43 11 -55z m-4491 52 c7 -10 -20
-38 -38 -38 -12 0 -10 24 4 38 15 15 25 15 34 0z m2244 2 c0 -5 -7 -10 -16
-10 -8 0 -12 5 -9 10 3 6 10 10 16 10 5 0 9 -4 9 -10z m124 -39 c0 -12 3 -21
8 -21 4 0 8 -13 8 -28 0 -21 -5 -28 -18 -27 -33 2 -44 15 -27 31 17 17 20 50
6 59 -5 3 -12 1 -15 -4 -4 -5 -1 -11 5 -13 7 -2 10 -9 8 -15 -3 -7 -16 -6 -39
4 -19 7 -25 11 -12 9 26 -5 28 2 5 20 -17 12 -16 13 5 14 12 0 22 5 22 11 0 7
8 6 23 -4 12 -8 22 -24 21 -36z m236 14 c0 -14 -4 -25 -9 -25 -5 0 -11 11 -13
25 -4 17 -1 25 8 25 8 0 14 -11 14 -25z m-480 5 c0 -5 -5 -10 -11 -10 -5 0 -7
5 -4 10 3 6 8 10 11 10 2 0 4 -4 4 -10z m140 0 c0 -5 -8 -10 -17 -10 -15 0
-16 2 -3 10 19 12 20 12 20 0z m156 -17 c-10 -10 -19 5 -10 18 6 11 8 11 12 0
2 -7 1 -15 -2 -18z m49 0 c1 -17 -1 -20 -11 -12 -8 7 -13 6 -17 -3 -2 -7 -8
-10 -12 -6 -4 4 -3 14 3 21 7 8 8 17 4 22 -4 4 2 6 12 4 12 -3 20 -13 21 -26z
m-6884 0 c10 -11 10 -14 2 -9 -8 4 -13 1 -13 -8 0 -9 -4 -16 -10 -16 -5 0 -10
11 -10 25 0 29 12 32 31 8z m6577 3 c-7 -8 -15 -12 -17 -11 -5 6 10 25 20 25
5 0 4 -6 -3 -14z m-188 -20 c0 -19 -5 -24 -20 -23 -21 1 -26 12 -11 21 5 4 12
0 14 -6 3 -7 6 -3 6 10 1 30 11 28 11 -2z m95 4 c3 -6 -4 -10 -17 -10 -18 0
-20 2 -8 10 19 12 18 12 25 0z m-60 -10 c-3 -5 -10 -10 -16 -10 -5 0 -9 5 -9
10 0 6 7 10 16 10 8 0 12 -4 9 -10z m265 -5 c8 -9 22 -13 39 -10 18 4 16 1 -9
-8 -32 -13 -33 -14 -15 -26 18 -10 16 -11 -12 -6 -21 4 -33 3 -33 -4 0 -6 -8
-11 -17 -11 -14 0 -12 6 11 25 30 26 28 29 -13 25 -15 -1 -21 2 -16 9 3 6 11
9 16 6 5 -4 9 -1 9 4 0 16 26 13 40 -4z m140 -1 c0 -9 5 -12 12 -8 20 13 108
14 108 3 0 -6 -7 -9 -15 -5 -8 3 -15 2 -15 -3 0 -4 -12 -8 -27 -8 -16 0 -35
-3 -44 -7 -11 -5 -19 1 -27 19 -7 15 -8 25 -2 25 6 0 10 -7 10 -16z m-258 -24
c7 0 6 5 -2 15 -10 12 -10 15 0 15 6 0 14 -9 17 -20 3 -11 9 -20 13 -20 4 0
10 -13 12 -30 3 -16 1 -30 -4 -30 -4 0 -8 10 -8 21 0 17 -3 19 -13 10 -8 -6
-17 -8 -20 -4 -4 3 -7 1 -7 -5 0 -7 -9 -12 -20 -12 -11 0 -23 -7 -26 -15 -7
-18 -25 -20 -21 -2 1 6 -4 11 -11 9 -8 -1 -11 2 -7 7 3 6 12 8 20 5 16 -6 85
24 85 37 0 5 -7 9 -15 9 -8 0 -15 5 -15 10 0 6 -8 10 -17 10 -15 0 -16 2 -3
10 10 6 17 5 23 -5 4 -8 13 -15 19 -15z m-2162 -6 c0 -8 -7 -14 -15 -14 -15 0
-21 21 -9 33 10 9 24 -2 24 -19z m2052 -24 c4 0 8 -5 8 -11 0 -7 -10 -9 -26
-5 l-26 7 26 -24 c14 -13 26 -29 26 -35 0 -7 7 -9 17 -5 12 5 15 2 11 -9 -4
-9 -2 -20 4 -26 8 -8 6 -13 -7 -18 -12 -5 -24 0 -36 14 -22 28 -27 28 -31 0
-2 -19 -10 -24 -40 -26 -24 -2 -38 1 -38 9 0 6 -8 9 -19 6 -12 -3 -22 1 -25 9
-8 21 -22 17 -23 -6 -1 -11 2 -20 8 -20 5 0 9 -6 9 -14 0 -8 5 -16 12 -18 7
-3 9 -12 4 -23 -4 -11 -10 -15 -14 -10 -4 6 -23 11 -42 12 -26 2 -31 0 -20 -7
12 -8 11 -10 -7 -10 -13 0 -23 -5 -23 -11 0 -6 7 -9 15 -5 9 3 15 0 15 -10 0
-12 -6 -15 -25 -10 -30 8 -69 -10 -59 -26 5 -7 2 -8 -5 -3 -7 4 -11 16 -8 26
7 26 -2 29 -46 14 -20 -7 -37 -9 -37 -4 0 4 9 11 20 14 11 4 18 10 16 13 -2 4
2 18 10 32 7 14 13 20 14 13 0 -7 7 -10 16 -6 13 5 13 8 2 15 -9 7 -5 8 14 4
23 -5 25 -3 21 15 -4 14 -8 17 -13 9 -5 -8 -19 -10 -39 -5 -17 4 -29 11 -25
16 3 5 10 6 16 3 7 -4 8 -2 4 4 -4 7 -2 12 3 12 6 0 11 -4 11 -9 0 -16 48 1
53 18 2 10 14 21 26 24 16 4 21 2 18 -8 -5 -11 11 -13 67 -6 5 1 3 8 -4 16
-15 17 -7 19 21 5 12 -7 19 -7 19 -1 0 5 -9 12 -19 16 -13 4 -18 12 -14 22 5
12 3 14 -8 8 -12 -8 -12 -6 0 8 7 9 20 17 28 17 12 0 13 -3 4 -14 -9 -11 -6
-12 14 -8 29 5 34 28 8 35 -14 4 -13 5 4 6 12 0 24 -5 27 -11 5 -10 7 -10 12
-1 4 9 11 9 30 -3 15 -11 24 -12 24 -5 0 6 -7 14 -16 18 -13 5 -13 7 -2 14 9
6 16 1 22 -16 6 -14 13 -25 18 -25z m39 27 c-6 -8 -8 -17 -4 -20 3 -4 1 -7 -5
-7 -7 0 -12 5 -12 11 0 5 -4 7 -10 4 -5 -3 -10 -2 -10 3 0 14 12 22 33 22 15
0 17 -3 8 -13z m-264 -17 c1 -11 -4 -20 -11 -20 -8 0 -16 9 -19 20 -4 14 0 20
12 20 10 0 17 -8 18 -20z m-57 6 c0 -3 -4 -8 -10 -11 -5 -3 -10 -1 -10 4 0 6
5 11 10 11 6 0 10 -2 10 -4z m360 -6 c0 -5 -7 -10 -16 -10 -8 0 -12 5 -9 10 3
6 10 10 16 10 5 0 9 -4 9 -10z m2970 6 c0 -3 -4 -8 -10 -11 -5 -3 -10 -1 -10
4 0 6 5 11 10 11 6 0 10 -2 10 -4z m-5065 -15 c3 -6 -3 -15 -14 -20 -26 -14
-31 -14 -31 3 0 21 34 34 45 17z m1753 -33 c3 -15 -1 -15 -27 -5 -21 7 -26 14
-18 19 18 12 41 5 45 -14z m516 16 c22 -8 20 -19 -2 -21 -10 -1 -19 5 -19 13
0 16 0 16 21 8z m-618 -16 c-12 -7 -21 -7 -28 0 -6 6 0 10 18 10 23 0 24 -2
10 -10z m174 -31 c0 -16 -3 -18 -12 -9 -6 6 -12 21 -13 32 -1 15 1 17 12 9 7
-6 13 -21 13 -32z m406 22 c8 -14 -10 -11 -32 6 -18 13 -18 14 4 8 12 -3 25
-9 28 -14z m-566 -9 c0 -5 -5 -10 -11 -10 -5 0 -7 5 -4 10 3 6 8 10 11 10 2 0
4 -4 4 -10z m-6147 -7 c-7 -2 -19 -2 -25 0 -7 3 -2 5 12 5 14 0 19 -2 13 -5z
m6216 3 c-12 -11 -89 -43 -89 -37 0 9 58 38 79 40 8 0 12 -1 10 -3z m377 -10
c15 -16 18 -26 6 -26 -4 0 -13 9 -20 20 -14 23 -7 26 14 6z m57 -3 c-7 -2 -19
-2 -25 0 -7 3 -2 5 12 5 14 0 19 -2 13 -5z m-600 -30 c-7 -2 -21 -2 -30 0 -10
3 -4 5 12 5 17 0 24 -2 18 -5z m597 3 c0 -3 -4 -8 -10 -11 -5 -3 -10 -1 -10 4
0 6 5 11 10 11 6 0 10 -2 10 -4z m-555 -12 c13 -5 14 -8 3 -15 -19 -12 -25
-11 -25 6 0 17 0 17 22 9z m-65 -8 c0 -3 -4 -8 -10 -11 -5 -3 -10 -1 -10 4 0
6 5 11 10 11 6 0 10 -2 10 -4z m-85 -16 c3 -5 2 -10 -4 -10 -5 0 -13 5 -16 10
-3 6 -2 10 4 10 5 0 13 -4 16 -10z m205 -16 c0 -2 -9 -4 -20 -4 -11 0 -20 4
-20 9 0 5 9 7 20 4 11 -3 20 -7 20 -9z m-95 -14 c-3 -5 -12 -7 -20 -3 -21 7
-19 13 6 13 11 0 18 -4 14 -10z m82 -6 c-3 -3 -12 -4 -19 -1 -8 3 -5 6 6 6 11
1 17 -2 13 -5z m-1562 -14 c3 -5 1 -10 -4 -10 -6 0 -11 5 -11 10 0 6 2 10 4
10 3 0 8 -4 11 -10z m1525 -20 c0 -5 -2 -10 -4 -10 -3 0 -8 5 -11 10 -3 6 -1
10 4 10 6 0 11 -4 11 -10z m-80 -40 c-14 -4 -34 -8 -45 -8 -16 0 -15 2 5 8 14
4 34 8 45 8 16 0 15 -2 -5 -8z m147 -6 c-3 -3 -12 -4 -19 -1 -8 3 -5 6 6 6 11
1 17 -2 13 -5z m-242 -14 c-3 -5 -11 -10 -16 -10 -6 0 -7 5 -4 10 3 6 11 10
16 10 6 0 7 -4 4 -10z m103 -7 c-14 -13 -21 -14 -40 -5 -22 11 -22 11 5 6 16
-4 27 -2 27 5 0 6 5 11 12 11 8 0 6 -6 -4 -17z m47 -12 c-6 -5 -25 10 -25 20
0 5 6 4 14 -3 8 -7 12 -15 11 -17z m165 8 c0 -5 -4 -8 -9 -5 -5 4 -12 0 -14
-6 -3 -8 -6 -6 -6 5 -1 9 6 17 14 17 8 0 15 -5 15 -11z m-262 -15 c-4 -3 -14
-7 -25 -9 -10 -1 -17 -8 -15 -16 3 -10 0 -10 -12 1 -25 20 -19 30 21 30 20 0
34 -3 31 -6z m187 -4 c3 -5 1 -10 -4 -10 -6 0 -11 5 -11 10 0 6 2 10 4 10 3 0
8 -4 11 -10z m-165 -15 c0 -9 -9 -15 -22 -15 -22 1 -23 1 -4 15 25 19 26 19
26 0z m88 8 c-16 -3 -28 -9 -28 -14 0 -13 -19 -11 -35 4 -11 11 -4 14 38 14
29 0 40 -2 25 -4z m-111 -39 c-3 -3 -12 -4 -19 -1 -8 3 -5 6 6 6 11 1 17 -2
13 -5z m3455 -416 c-18 -18 -14 -30 8 -23 21 7 28 -9 8 -21 -20 -13 23 -34 61
-30 20 2 28 1 19 -1 -31 -8 -20 -26 13 -21 55 8 139 -34 139 -69 0 -17 8 -17
26 2 17 16 49 21 40 6 -10 -16 6 -42 22 -36 8 3 21 0 28 -6 10 -8 14 -8 14 0
0 17 27 13 34 -5 5 -13 9 -14 21 -4 12 10 15 9 15 -5 0 -12 5 -15 18 -10 29
13 85 15 98 5 15 -13 64 4 64 22 0 7 5 6 13 -4 16 -21 58 -30 75 -16 10 9 18
9 33 0 13 -8 25 -9 37 -3 22 12 71 9 66 -4 -3 -6 6 -15 17 -20 22 -10 37 -65
18 -65 -6 0 -5 -8 1 -21 7 -11 9 -27 6 -34 -3 -8 -1 -17 3 -20 5 -2 6 -19 2
-37 -12 -59 2 -112 40 -146 28 -26 32 -34 23 -49 -6 -10 -24 -20 -40 -21 -16
-2 -34 -8 -41 -14 -11 -9 -135 -42 -198 -53 -164 -28 -423 -81 -520 -107 -66
-18 -142 -32 -169 -32 l-49 -1 -13 45 c-7 25 -18 83 -23 130 -5 47 -23 132
-39 190 -28 100 -54 285 -31 215 6 -16 13 -55 15 -85 3 -30 11 -61 19 -69 12
-12 14 9 15 160 1 96 2 182 2 191 -1 27 18 32 19 6 1 -21 1 -21 9 4 4 15 15
35 24 44 15 14 16 14 17 -3 0 -14 2 -15 6 -3 7 17 23 30 38 30 5 0 4 -5 -3
-12z m1248 -67 c0 -20 -13 -41 -25 -41 -15 0 -24 19 -17 38 5 14 42 17 42 3z
m-173 -301 c1 -16 -2 -30 -7 -30 -6 0 -10 -5 -10 -11 0 -12 -29 -38 -42 -39
-5 0 -8 5 -8 10 0 6 7 10 15 10 18 0 20 20 3 21 -10 0 -10 2 0 6 6 2 12 8 12
13 0 19 21 62 27 56 3 -3 8 -19 10 -36z m-54 -214 c5 -13 -10 -36 -24 -36 -12
0 -17 39 -5 44 19 8 24 6 29 -8z m57 -6 c0 -5 -4 -10 -10 -10 -5 0 -10 5 -10
10 0 6 5 10 10 10 6 0 10 -4 10 -10z"/>
<path d="M896 5744 c-11 -7 -17 -16 -15 -19 3 -3 14 2 25 9 10 8 17 17 14 19
-3 3 -14 -1 -24 -9z"/>
<path d="M10202 6568 c0 -13 -5 -36 -12 -53 l-12 -30 -28 34 c-16 19 -27 38
-24 43 3 4 -8 8 -25 8 -16 0 -33 -4 -36 -10 -3 -5 1 -10 10 -10 8 0 28 -18 43
-40 20 -29 34 -39 53 -40 23 0 28 5 33 36 4 19 16 44 27 55 25 25 24 29 -5 29
-18 0 -24 -6 -24 -22z"/>
<path d="M10273 6563 c0 -58 -13 -102 -28 -96 -20 7 -19 -7 3 -24 15 -13 15
-13 -5 -4 -27 14 -36 14 -28 1 3 -5 2 -10 -4 -10 -5 0 -12 8 -14 18 -4 13 -5
12 -6 -5 -1 -17 6 -24 27 -29 37 -9 50 -21 73 -68 21 -44 23 -49 11 -42 -4 3
-13 -9 -19 -25 -10 -25 -9 -28 1 -20 8 6 21 9 30 5 13 -5 16 0 16 25 0 17 -5
31 -11 31 -8 0 -8 4 0 14 10 12 8 19 -10 37 -16 16 -18 21 -5 16 13 -5 16 -2
13 18 -1 13 -6 27 -10 31 -3 4 -5 -3 -2 -15 2 -13 -1 -21 -9 -21 -10 0 -11 13
-2 68 13 78 10 122 -8 122 -7 0 -13 -12 -13 -27z"/>
<path d="M9810 6555 c11 -13 10 -14 -3 -9 -9 3 -23 -1 -32 -9 -17 -18 -20 -37
-4 -37 5 0 8 4 5 8 -3 5 1 9 8 9 23 0 12 -22 -34 -70 -47 -50 -113 -156 -124
-201 -6 -25 -10 -28 -36 -22 -28 5 -30 3 -31 -24 -1 -17 -2 -35 -3 -42 -1 -6
6 -13 14 -15 13 -4 13 -3 0 7 -12 10 -13 11 -1 8 12 -4 15 -30 15 -136 1 -72
-2 -124 -5 -114 -5 14 -7 15 -11 2 -3 -8 -3 -2 0 13 3 24 1 28 -15 25 -10 -2
-16 -11 -14 -19 2 -8 3 -24 3 -35 0 -16 7 -21 25 -21 29 0 30 -1 38 -36 6 -23
4 -27 -13 -27 -12 0 -22 -3 -25 -7 -5 -12 29 -73 37 -65 17 16 32 5 60 -42 25
-43 26 -50 12 -58 -9 -5 -16 -13 -16 -18 0 -18 34 -50 52 -50 23 0 23 5 -3 43
-12 19 -3 12 24 -18 41 -44 43 -50 29 -62 -15 -11 -14 -15 15 -43 32 -30 32
-30 43 -10 16 29 36 19 32 -14 -2 -18 0 -26 7 -22 5 4 8 13 4 21 -7 19 -5 19
44 -5 33 -15 40 -24 36 -40 -3 -12 0 -20 7 -20 7 0 10 7 6 15 -7 19 8 19 64
-2 25 -9 79 -19 120 -22 66 -5 75 -8 75 -26 0 -14 7 -20 28 -22 23 -1 27 2 27
23 0 18 5 24 23 24 12 0 29 5 37 10 13 8 13 10 -2 10 -9 0 -19 8 -21 18 -4 13
-5 11 -6 -5 -1 -18 -7 -23 -26 -23 -20 0 -25 5 -25 26 0 17 6 28 20 31 11 3
20 13 20 23 0 28 27 45 45 30 13 -11 15 -10 12 6 -1 11 -6 25 -10 32 -5 7 -5
22 -2 35 5 16 4 18 -4 8 -5 -8 -17 -16 -26 -17 -24 -4 -30 -13 -17 -26 8 -8 6
-19 -10 -42 -12 -17 -26 -34 -31 -37 -4 -3 -9 -19 -11 -35 -4 -35 -33 -45 -53
-18 -12 16 -13 16 -13 1 0 -24 -50 -23 -51 1 0 10 -3 12 -6 5 -2 -7 -16 -13
-29 -13 -18 0 -24 5 -24 23 -1 19 -2 20 -10 5 -12 -20 -50 -12 -50 11 0 11 -3
12 -8 4 -4 -7 -17 -10 -31 -6 -18 5 -21 11 -17 32 6 24 5 25 -8 8 -20 -25 -60
-14 -53 15 4 16 3 17 -9 7 -16 -13 -44 4 -44 28 0 8 -5 11 -10 8 -18 -11 -41
16 -35 39 5 16 4 18 -4 7 -8 -13 -12 -13 -26 -1 -9 7 -14 22 -12 32 4 13 0 18
-10 16 -8 -2 -20 5 -27 15 -9 15 -7 21 7 31 24 18 21 29 -4 14 -17 -11 -22
-10 -34 6 -10 13 -12 23 -4 32 7 9 5 12 -8 10 -12 0 -19 7 -21 22 -2 12 1 22
7 22 6 0 11 5 11 11 0 6 -7 8 -15 5 -19 -7 -38 35 -21 46 8 6 8 8 -1 8 -22 0
-26 40 -6 56 17 14 17 14 -2 12 -15 -2 -21 4 -23 24 -3 22 1 27 25 31 l28 4
-27 2 c-23 1 -28 6 -28 25 0 15 7 26 18 29 16 4 16 5 0 6 -18 1 -23 17 -12 45
3 8 12 12 20 9 8 -3 14 0 14 6 0 6 -7 11 -16 11 -11 0 -14 5 -10 16 3 9 6 20
6 25 0 5 8 9 18 9 13 0 14 2 3 9 -18 11 -5 51 17 51 13 0 14 2 3 9 -8 5 -11
16 -6 31 6 18 12 20 33 15 26 -6 26 -6 7 9 -16 12 -18 18 -9 33 7 10 19 17 28
17 12 -1 14 1 7 10 -16 19 11 51 34 42 15 -5 16 -4 5 9 -11 13 -10 19 5 35 15
16 21 18 34 8 13 -10 14 -10 4 2 -10 11 -9 17 4 32 9 10 13 18 9 18 -4 0 0 10
8 21 15 22 12 49 -6 49 -6 0 -5 -7 2 -15z m-207 -362 c-7 -2 -9 -12 -6 -21 6
-14 5 -15 -9 -2 -14 13 -14 16 1 27 9 6 18 9 21 6 3 -3 0 -8 -7 -10z m27 -428
c0 -5 -5 -3 -10 5 -5 8 -10 20 -10 25 0 6 5 3 10 -5 5 -8 10 -19 10 -25z m185
-245 c21 -23 11 -27 -12 -5 -12 13 -18 13 -32 3 -14 -12 -15 -11 -2 5 17 22
24 22 46 -3z"/>
<path d="M9917 6488 c-5 -15 59 -128 73 -128 21 0 17 21 -17 71 -46 70 -49 73
-56 57z"/>
<path d="M10115 6421 c-3 -5 -2 -12 3 -15 5 -3 9 1 9 9 0 17 -3 19 -12 6z"/>
<path d="M10075 6410 c-3 -5 -13 -33 -21 -61 -15 -49 -14 -53 8 -97 28 -56 63
-83 112 -87 40 -4 62 19 35 36 -8 5 -9 9 -4 9 6 1 -6 8 -25 16 l-35 16 45 39
c25 21 41 39 36 39 -5 0 -3 7 4 15 15 18 9 19 -25 3 -14 -6 -25 -19 -25 -28 0
-19 -57 -77 -67 -67 -3 4 -1 7 5 7 7 0 12 5 12 11 0 5 -3 8 -7 6 -5 -3 -9 11
-11 31 -6 82 -16 107 -33 82 -9 -12 -10 -12 -5 3 3 10 6 21 6 23 0 3 5 2 12
-2 7 -4 8 -3 4 4 -9 15 -13 15 -21 2z"/>
<path d="M9784 6369 c-14 -16 -15 -19 -2 -19 20 0 98 -61 98 -77 0 -19 13 -16
27 6 10 17 10 21 -5 25 -9 3 -36 23 -59 45 -41 37 -43 38 -59 20z"/>
<path d="M9741 6312 c-14 -27 -14 -32 3 -32 19 0 87 -38 103 -57 10 -12 13
-12 22 5 9 17 4 22 -40 43 -28 13 -57 32 -64 42 -13 18 -14 18 -24 -1z"/>
<path d="M9701 6234 c-14 -32 -14 -33 7 -27 23 6 112 -33 112 -49 1 -8 7 -5
15 6 16 21 20 37 8 34 -16 -4 -93 26 -111 43 -19 17 -20 17 -31 -7z"/>
<path d="M9676 6164 c-8 -22 -8 -36 2 -30 12 7 116 -24 124 -38 8 -13 13 -8
23 23 4 15 3 21 -3 17 -11 -6 -110 21 -128 35 -8 6 -14 4 -18 -7z"/>
<path d="M10203 6057 c-13 -5 -23 -16 -23 -23 0 -9 -22 -12 -90 -10 -52 1 -90
-1 -90 -7 0 -5 -9 -7 -20 -4 -11 3 -20 0 -20 -5 0 -6 -6 -5 -15 2 -12 10 -15
10 -15 -3 0 -11 -15 -20 -42 -27 -72 -19 -67 -20 62 -16 84 2 141 9 174 21 46
16 51 16 61 1 7 -9 23 -16 37 -16 18 0 29 -9 41 -35 22 -46 22 -46 -15 -38
-22 4 -29 3 -24 -5 4 -7 2 -12 -3 -12 -6 0 -11 -8 -11 -17 0 -16 -2 -16 -11
-3 -9 13 -10 13 -6 0 2 -8 21 -20 43 -26 67 -18 97 -82 69 -146 -6 -15 -2 -18
18 -18 25 0 26 1 24 73 -1 57 -6 79 -24 106 -24 35 -29 56 -15 64 4 2 1 2 -7
0 -9 -2 -11 2 -7 14 4 10 4 14 0 10 -12 -11 -35 53 -28 76 4 13 2 17 -5 13 -7
-4 -9 -1 -5 8 8 21 -26 36 -53 23z"/>
<path d="M9778 6033 c-34 -4 -38 -7 -38 -34 0 -24 4 -29 23 -28 16 0 18 2 7 7
-20 9 -26 36 -5 29 8 -4 15 -2 15 3 0 6 5 10 10 10 6 0 8 -11 4 -25 -5 -19 -2
-25 9 -25 9 0 19 5 23 12 5 8 2 9 -9 5 -21 -8 -22 0 -2 19 16 16 20 35 8 32
-5 -1 -25 -3 -45 -5z"/>
<path d="M10150 5855 c0 -5 5 -17 10 -25 5 -8 10 -10 10 -5 0 6 -5 17 -10 25
-5 8 -10 11 -10 5z"/>
<path d="M9834 5832 c7 -12 -100 -66 -113 -58 -14 9 -14 0 0 -26 10 -18 13
-19 23 -7 15 19 105 61 117 54 12 -8 12 2 -1 26 -6 10 -15 19 -21 19 -6 0 -8
-4 -5 -8z"/>
<path d="M10114 5826 c4 -13 2 -17 -8 -13 -18 7 -36 -34 -36 -84 0 -42 18 -87
44 -108 10 -9 13 -19 7 -30 -5 -9 -12 -37 -15 -63 -4 -27 -12 -48 -17 -48 -6
0 -7 -4 -4 -10 3 -5 16 -10 28 -10 20 0 22 6 24 66 1 36 3 68 5 69 2 2 25 -2
51 -8 54 -12 72 0 60 38 -3 11 -7 43 -8 70 -2 41 -20 113 -25 95 -8 -30 -8
-80 0 -85 13 -8 13 -52 0 -60 -5 -3 -20 0 -32 7 -13 7 -27 11 -33 9 -5 -1 -7
1 -3 5 4 4 3 13 -3 20 -12 14 -15 60 -6 89 4 13 -1 29 -14 45 -15 18 -19 20
-15 6z m89 -213 c-3 -7 -6 -13 -8 -13 -2 0 -5 6 -8 13 -3 8 1 14 8 14 7 0 11
-6 8 -14z"/>
<path d="M9870 5768 c0 -21 -66 -78 -90 -78 -25 0 -25 -5 0 -32 15 -16 20 -18
20 -7 0 18 44 62 82 82 28 14 28 14 8 32 -17 15 -20 16 -20 3z"/>
<path d="M9982 5585 c-20 -40 -28 -67 -21 -71 13 -8 11 -11 48 63 35 71 36 73
18 73 -7 0 -27 -29 -45 -65z"/>
<path d="M9880 5434 c0 -8 5 -12 10 -9 6 3 10 10 10 16 0 5 -4 9 -10 9 -5 0
-10 -7 -10 -16z"/>
<path d="M9972 5401 c2 -7 7 -12 11 -12 12 1 9 15 -3 20 -7 2 -11 -2 -8 -8z"/>
<path d="M10040 5380 c0 -6 7 -10 15 -10 8 0 15 2 15 4 0 2 -7 6 -15 10 -8 3
-15 1 -15 -4z"/>
<path d="M10085 5370 c3 -5 8 -10 11 -10 2 0 4 5 4 10 0 6 -5 10 -11 10 -5 0
-7 -4 -4 -10z"/>
<path d="M10112 5371 c2 -7 7 -12 11 -12 12 1 9 15 -3 20 -7 2 -11 -2 -8 -8z"/>
<path d="M10151 5354 c0 -11 3 -14 6 -6 3 7 2 16 -1 19 -3 4 -6 -2 -5 -13z"/>
<path d="M11390 5315 c-7 -9 -10 -18 -7 -21 3 -3 10 4 17 15 13 25 8 27 -10 6z"/>
<path d="M11425 5310 c-10 -11 -14 -20 -9 -20 12 1 44 25 44 34 0 12 -17 6
-35 -14z"/>
<path d="M6350 6610 c0 -5 5 -10 10 -10 6 0 10 5 10 10 0 6 -4 10 -10 10 -5 0
-10 -4 -10 -10z"/>
<path d="M6516 6612 c-3 -6 -1 -14 5 -17 15 -10 25 3 12 16 -7 7 -13 7 -17 1z"/>
<path d="M5990 6580 c0 -5 7 -10 16 -10 8 0 12 5 9 10 -3 6 -10 10 -16 10 -5
0 -9 -4 -9 -10z"/>
<path d="M6185 6580 c3 -5 8 -10 11 -10 2 0 4 5 4 10 0 6 -5 10 -11 10 -5 0
-7 -4 -4 -10z"/>
<path d="M6320 6580 c0 -5 7 -7 15 -4 8 4 15 8 15 10 0 2 -7 4 -15 4 -8 0 -15
-4 -15 -10z"/>
<path d="M6465 6580 c-3 -6 1 -7 9 -4 18 7 21 14 7 14 -6 0 -13 -4 -16 -10z"/>
<path d="M6637 6569 c7 -7 15 -10 18 -7 3 3 -2 9 -12 12 -14 6 -15 5 -6 -5z"/>
<path d="M6780 6560 c0 -5 5 -10 10 -10 6 0 10 5 10 10 0 6 -4 10 -10 10 -5 0
-10 -4 -10 -10z"/>
<path d="M6307 6549 c7 -7 15 -10 18 -7 3 3 -2 9 -12 12 -14 6 -15 5 -6 -5z"/>
<path d="M6550 6550 c-9 -6 -10 -10 -3 -10 6 0 15 5 18 10 8 12 4 12 -15 0z"/>
<path d="M5800 6540 c0 -5 5 -10 10 -10 6 0 10 5 10 10 0 6 -4 10 -10 10 -5 0
-10 -4 -10 -10z"/>
<path d="M6488 6543 c7 -3 16 -2 19 1 4 3 -2 6 -13 5 -11 0 -14 -3 -6 -6z"/>
<path d="M6760 6485 c0 -8 5 -15 10 -15 6 0 10 7 10 15 0 8 -4 15 -10 15 -5 0
-10 -7 -10 -15z"/>
<path d="M6834 6448 c0 -23 7 -43 14 -46 6 -2 12 3 12 12 0 9 5 16 10 16 6 0
10 -4 10 -8 0 -5 6 -9 14 -9 11 0 12 5 4 23 -9 19 -14 21 -29 13 -20 -10 -28
4 -9 16 13 8 3 25 -15 25 -9 0 -12 -13 -11 -42z"/>
<path d="M5763 6435 c-8 -26 -8 -35 0 -35 7 0 13 16 14 35 2 44 -1 44 -14 0z"/>
<path d="M5793 6425 c0 -22 2 -30 4 -17 2 12 2 30 0 40 -3 9 -5 -1 -4 -23z"/>
<path d="M5820 6429 c0 -5 5 -7 10 -4 6 3 10 8 10 11 0 2 -4 4 -10 4 -5 0 -10
-5 -10 -11z"/>
<path d="M6825 6340 c-3 -5 -1 -10 4 -10 6 0 11 5 11 10 0 6 -2 10 -4 10 -3 0
-8 -4 -11 -10z"/>
<path d="M6785 6300 c-3 -5 -1 -10 4 -10 6 0 11 5 11 10 0 6 -2 10 -4 10 -3 0
-8 -4 -11 -10z"/>
<path d="M7936 6451 c-4 -5 -2 -12 3 -15 5 -4 12 -2 15 3 4 5 2 12 -3 15 -5 4
-12 2 -15 -3z"/>
<path d="M9313 6023 c9 -2 23 -2 30 0 6 3 -1 5 -18 5 -16 0 -22 -2 -12 -5z"/>
<path d="M8162 5898 c2 -6 10 -14 16 -16 7 -2 10 2 6 12 -7 18 -28 22 -22 4z"/>
<path d="M8586 5885 c-9 -26 -7 -32 5 -12 6 10 9 21 6 23 -2 3 -7 -2 -11 -11z"/>
<path d="M7680 5881 c0 -9 33 -41 43 -41 4 0 7 7 7 15 0 9 -6 12 -17 8 -10 -4
-14 -2 -10 4 4 6 0 13 -8 17 -8 3 -15 2 -15 -3z"/>
<path d="M8155 5850 c4 -6 11 -8 16 -5 14 9 11 15 -7 15 -8 0 -12 -5 -9 -10z"/>
<path d="M8562 5835 c0 -16 2 -22 5 -12 2 9 2 23 0 30 -3 6 -5 -1 -5 -18z"/>
<path d="M7935 5840 c3 -5 8 -10 11 -10 2 0 4 5 4 10 0 6 -5 10 -11 10 -5 0
-7 -4 -4 -10z"/>
<path d="M7660 5834 c0 -3 6 -12 14 -19 17 -17 30 -7 15 12 -12 13 -29 18 -29
7z"/>
<path d="M8070 5803 c0 -12 5 -25 11 -28 17 -11 18 -2 4 25 -14 24 -14 24 -15
3z"/>
<path d="M8230 5811 c0 -10 19 -25 25 -20 1 2 -3 10 -11 17 -8 7 -14 8 -14 3z"/>
<path d="M8790 5810 c0 -5 7 -10 16 -10 8 0 12 5 9 10 -3 6 -10 10 -16 10 -5
0 -9 -4 -9 -10z"/>
<path d="M7890 5780 c0 -5 5 -10 11 -10 5 0 7 5 4 10 -3 6 -8 10 -11 10 -2 0
-4 -4 -4 -10z"/>
<path d="M8610 5779 c0 -5 5 -7 10 -4 6 3 10 8 10 11 0 2 -4 4 -10 4 -5 0 -10
-5 -10 -11z"/>
<path d="M8185 5760 c3 -5 8 -10 11 -10 2 0 4 5 4 10 0 6 -5 10 -11 10 -5 0
-7 -4 -4 -10z"/>
<path d="M7917 5225 c6 -17 25 -15 31 3 2 7 -5 12 -17 12 -14 0 -19 -5 -14
-15z"/>
<path d="M7960 5209 c0 -5 5 -7 10 -4 6 3 10 8 10 11 0 2 -4 4 -10 4 -5 0 -10
-5 -10 -11z"/>
<path d="M7222 5061 c-8 -4 -5 -11 8 -19 16 -10 20 -10 20 2 0 19 -13 27 -28
17z"/>
<path d="M7298 5037 c-3 -19 -2 -25 4 -19 6 6 8 18 6 28 -3 14 -5 12 -10 -9z"/>
<path d="M7270 5039 c0 -5 5 -7 10 -4 6 3 10 8 10 11 0 2 -4 4 -10 4 -5 0 -10
-5 -10 -11z"/>
<path d="M7208 5013 c-30 -7 -21 -30 12 -31 27 -1 29 1 20 19 -6 10 -12 18
-13 18 -1 -1 -10 -3 -19 -6z"/>
<path d="M7266 4979 c-19 -19 -19 -19 2 -19 15 0 22 6 22 20 0 24 0 24 -24 -1z"/>
<path d="M7340 4991 c0 -6 4 -12 8 -15 5 -3 9 1 9 9 0 8 -4 15 -9 15 -4 0 -8
-4 -8 -9z"/>
<path d="M7058 4893 c7 -3 16 -2 19 1 4 3 -2 6 -13 5 -11 0 -14 -3 -6 -6z"/>
<path d="M6998 4883 c7 -3 16 -2 19 1 4 3 -2 6 -13 5 -11 0 -14 -3 -6 -6z"/>
<path d="M7035 4870 c3 -5 11 -10 16 -10 6 0 7 5 4 10 -3 6 -11 10 -16 10 -6
0 -7 -4 -4 -10z"/>
<path d="M10211 4274 c0 -11 3 -14 6 -6 3 7 2 16 -1 19 -3 4 -6 -2 -5 -13z"/>
<path d="M11185 3770 c3 -5 8 -10 11 -10 2 0 4 5 4 10 0 6 -5 10 -11 10 -5 0
-7 -4 -4 -10z"/>
<path d="M5940 8710 c0 -5 5 -10 10 -10 6 0 10 5 10 10 0 6 -4 10 -10 10 -5 0
-10 -4 -10 -10z"/>
<path d="M7115 8511 c-3 -5 -1 -12 5 -16 5 -3 10 1 10 9 0 18 -6 21 -15 7z"/>
<path d="M7070 8499 c0 -5 5 -7 10 -4 6 3 10 8 10 11 0 2 -4 4 -10 4 -5 0 -10
-5 -10 -11z"/>
<path d="M7238 8493 c7 -3 16 -2 19 1 4 3 -2 6 -13 5 -11 0 -14 -3 -6 -6z"/>
<path d="M7170 8480 c0 -5 5 -10 10 -10 6 0 10 5 10 10 0 6 -4 10 -10 10 -5 0
-10 -4 -10 -10z"/>
<path d="M7448 8463 c7 -3 16 -2 19 1 4 3 -2 6 -13 5 -11 0 -14 -3 -6 -6z"/>
<path d="M7510 8460 c-9 -6 -10 -10 -3 -10 6 0 15 5 18 10 8 12 4 12 -15 0z"/>
<path d="M7575 8450 c3 -5 14 -10 23 -10 15 0 15 2 2 10 -20 13 -33 13 -25 0z"/>
<path d="M7208 8443 c7 -3 16 -2 19 1 4 3 -2 6 -13 5 -11 0 -14 -3 -6 -6z"/>
<path d="M7520 8359 c0 -5 5 -7 10 -4 6 3 10 8 10 11 0 2 -4 4 -10 4 -5 0 -10
-5 -10 -11z"/>
<path d="M7658 8313 c7 -3 16 -2 19 1 4 3 -2 6 -13 5 -11 0 -14 -3 -6 -6z"/>
<path d="M7840 8300 c-13 -8 -12 -10 3 -10 9 0 17 5 17 10 0 12 -1 12 -20 0z"/>
<path d="M7855 8260 l-30 -8 27 -1 c15 0 30 4 33 9 3 6 5 9 3 9 -2 -1 -16 -5
-33 -9z"/>
<path d="M5730 7880 c0 -5 5 -10 10 -10 6 0 10 5 10 10 0 6 -4 10 -10 10 -5 0
-10 -4 -10 -10z"/>
<path d="M5167 7471 c-4 -17 -3 -21 5 -13 5 5 8 16 6 23 -3 8 -7 3 -11 -10z"/>
<path d="M8230 7460 c0 -5 5 -10 10 -10 6 0 10 5 10 10 0 6 -4 10 -10 10 -5 0
-10 -4 -10 -10z"/>
<path d="M4642 7417 c4 -30 28 -34 28 -4 0 15 -6 24 -15 24 -10 0 -15 -8 -13
-20z"/>
<path d="M9010 7430 c-8 -5 -10 -10 -5 -10 6 0 17 5 25 10 8 5 11 10 5 10 -5
0 -17 -5 -25 -10z"/>
<path d="M5290 7420 c0 -5 7 -10 15 -10 8 0 15 5 15 10 0 6 -7 10 -15 10 -8 0
-15 -4 -15 -10z"/>
<path d="M5221 7408 c-1 -9 -6 -18 -12 -20 -7 -2 -10 -11 -7 -18 3 -11 8 -9
17 8 7 13 10 28 7 35 -2 7 -5 5 -5 -5z"/>
<path d="M8305 7410 c-3 -5 -1 -10 4 -10 6 0 11 5 11 10 0 6 -2 10 -4 10 -3 0
-8 -4 -11 -10z"/>
<path d="M4790 7401 c0 -6 4 -13 10 -16 6 -3 7 1 4 9 -7 18 -14 21 -14 7z"/>
<path d="M5935 7400 c3 -5 8 -10 11 -10 2 0 4 5 4 10 0 6 -5 10 -11 10 -5 0
-7 -4 -4 -10z"/>
<path d="M6591 7344 c0 -11 3 -14 6 -6 3 7 2 16 -1 19 -3 4 -6 -2 -5 -13z"/>
<path d="M6767 7321 c12 -10 19 -22 15 -27 -4 -5 0 -3 8 3 12 11 11 15 -6 28
-28 21 -43 18 -17 -4z"/>
<path d="M8831 7254 c0 -11 3 -14 6 -6 3 7 2 16 -1 19 -3 4 -6 -2 -5 -13z"/>
<path d="M8904 7247 c3 -10 0 -35 -8 -57 -7 -22 -10 -37 -5 -34 5 3 9 -7 9
-22 0 -46 8 -22 14 41 3 35 1 67 -5 75 -9 12 -10 12 -5 -3z"/>
<path d="M6690 7213 c0 -5 9 -14 20 -21 11 -7 20 -8 20 -2 0 5 -9 14 -20 20
-11 6 -20 7 -20 3z"/>
<path d="M7805 7200 c-3 -5 1 -10 10 -10 9 0 13 5 10 10 -3 6 -8 10 -10 10 -2
0 -7 -4 -10 -10z"/>
<path d="M7935 7190 c-3 -5 -1 -10 4 -10 6 0 11 5 11 10 0 6 -2 10 -4 10 -3 0
-8 -4 -11 -10z"/>
<path d="M9241 7184 c0 -11 3 -14 6 -6 3 7 2 16 -1 19 -3 4 -6 -2 -5 -13z"/>
<path d="M8076 7182 c-3 -6 -1 -14 5 -17 14 -9 20 -2 10 14 -6 8 -11 9 -15 3z"/>
<path d="M6615 7170 c4 -6 11 -8 16 -5 14 9 11 15 -7 15 -8 0 -12 -5 -9 -10z"/>
<path d="M8487 7144 c-3 -5 1 -15 9 -22 16 -14 18 -5 5 17 -5 7 -11 9 -14 5z"/>
<path d="M9123 7100 c4 -14 7 -35 7 -47 0 -13 4 -23 9 -23 10 0 -3 77 -14 88
-4 4 -5 -4 -2 -18z"/>
<path d="M9531 7104 c0 -11 3 -14 6 -6 3 7 2 16 -1 19 -3 4 -6 -2 -5 -13z"/>
<path d="M9561 7094 c0 -11 3 -14 6 -6 3 7 2 16 -1 19 -3 4 -6 -2 -5 -13z"/>
<path d="M8421 7084 c0 -11 3 -14 6 -6 3 7 2 16 -1 19 -3 4 -6 -2 -5 -13z"/>
<path d="M6705 7080 c-3 -5 -2 -10 4 -10 5 0 13 5 16 10 3 6 2 10 -4 10 -5 0
-13 -4 -16 -10z"/>
<path d="M8130 7079 c0 -5 5 -7 10 -4 6 3 10 8 10 11 0 2 -4 4 -10 4 -5 0 -10
-5 -10 -11z"/>
<path d="M8270 7079 c0 -5 5 -7 10 -4 6 3 10 8 10 11 0 2 -4 4 -10 4 -5 0 -10
-5 -10 -11z"/>
<path d="M8641 7044 c0 -11 3 -14 6 -6 3 7 2 16 -1 19 -3 4 -6 -2 -5 -13z"/>
<path d="M9488 7020 c-5 -33 6 -28 17 8 3 12 2 22 -3 22 -5 0 -12 -14 -14 -30z"/>
<path d="M8030 7029 c0 -5 5 -7 10 -4 6 3 10 8 10 11 0 2 -4 4 -10 4 -5 0 -10
-5 -10 -11z"/>
<path d="M8941 7024 c0 -11 3 -14 6 -6 3 7 2 16 -1 19 -3 4 -6 -2 -5 -13z"/>
<path d="M9555 7019 c-11 -16 -1 -19 13 -3 7 8 8 14 3 14 -5 0 -13 -5 -16 -11z"/>
<path d="M8986 7005 c-3 -8 -1 -15 4 -15 6 0 10 7 10 15 0 8 -2 15 -4 15 -2 0
-6 -7 -10 -15z"/>
<path d="M9151 7008 c1 -15 17 -55 19 -48 7 24 6 37 -6 48 -11 10 -14 10 -13
0z"/>
<path d="M6685 7000 c4 -6 11 -8 16 -5 14 9 11 15 -7 15 -8 0 -12 -5 -9 -10z"/>
<path d="M9527 6987 c-4 -10 -7 -33 -6 -50 l1 -32 9 33 c12 40 8 79 -4 49z"/>
<path d="M8920 6968 c0 -9 -6 -19 -12 -21 -10 -4 -10 -6 0 -6 14 -1 28 26 18
36 -3 4 -6 -1 -6 -9z"/>
<path d="M9545 6935 c-3 -26 -4 -49 -2 -52 3 -3 9 16 12 42 4 25 5 48 2 51 -2
3 -8 -16 -12 -41z"/>
<path d="M9572 6970 c7 -22 48 -26 48 -4 0 12 -3 14 -13 5 -10 -8 -17 -7 -26
2 -11 10 -13 9 -9 -3z"/>
<path d="M6700 6962 c0 -5 7 -17 16 -28 15 -18 15 -18 5 2 -6 12 -7 24 -4 28
3 3 1 6 -5 6 -7 0 -12 -4 -12 -8z"/>
<path d="M6900 6950 c0 -15 7 -20 25 -20 29 0 32 8 8 26 -25 19 -33 17 -33 -6z"/>
<path d="M7885 6960 c3 -5 8 -10 11 -10 2 0 4 5 4 10 0 6 -5 10 -11 10 -5 0
-7 -4 -4 -10z"/>
<path d="M8806 6953 c-6 -14 -5 -15 5 -6 7 7 10 15 7 18 -3 3 -9 -2 -12 -12z"/>
<path d="M9482 6940 c0 -19 2 -27 5 -17 2 9 2 25 0 35 -3 9 -5 1 -5 -18z"/>
<path d="M7990 6950 c0 -5 5 -10 10 -10 6 0 10 5 10 10 0 6 -4 10 -10 10 -5 0
-10 -4 -10 -10z"/>
<path d="M8375 6949 c-4 -6 -5 -12 -2 -15 2 -3 7 2 10 11 7 17 1 20 -8 4z"/>
<path d="M6805 6940 c4 -6 11 -8 16 -5 14 9 11 15 -7 15 -8 0 -12 -5 -9 -10z"/>
<path d="M6845 6940 c-4 -6 5 -10 20 -10 15 0 24 4 20 10 -3 6 -12 10 -20 10
-8 0 -17 -4 -20 -10z"/>
<path d="M8641 6924 c0 -11 3 -14 6 -6 3 7 2 16 -1 19 -3 4 -6 -2 -5 -13z"/>
<path d="M8919 6923 c-13 -16 -12 -17 4 -4 9 7 17 15 17 17 0 8 -8 3 -21 -13z"/>
<path d="M9001 6918 c-1 -24 14 -31 29 -13 9 10 9 15 1 15 -6 0 -11 -6 -12
-12 0 -7 -4 -4 -9 7 -7 16 -9 17 -9 3z"/>
<path d="M9090 6923 c0 -5 -11 -15 -25 -21 -16 -8 -25 -20 -25 -34 1 -22 1
-22 12 -3 6 11 20 28 32 37 11 9 17 20 13 24 -4 4 -7 3 -7 -3z"/>
<path d="M9445 6890 c-4 -17 -5 -34 -2 -36 3 -3 8 9 12 26 4 17 5 34 2 36 -3
3 -8 -9 -12 -26z"/>
<path d="M8851 6901 c-7 -5 -12 -14 -10 -20 2 -6 10 -2 17 9 14 22 13 23 -7
11z"/>
<path d="M9276 6885 c-3 -8 -1 -15 4 -15 6 0 10 7 10 15 0 8 -2 15 -4 15 -2 0
-6 -7 -10 -15z"/>
<path d="M6780 6879 c0 -5 5 -7 10 -4 6 3 10 8 10 11 0 2 -4 4 -10 4 -5 0 -10
-5 -10 -11z"/>
<path d="M8005 6880 c-3 -5 -12 -7 -20 -3 -9 3 -15 -1 -15 -11 0 -21 7 -20 37
4 14 11 21 20 15 20 -6 0 -13 -4 -17 -10z"/>
<path d="M8200 6883 c0 -15 18 -35 23 -27 3 5 -1 15 -9 22 -8 7 -14 9 -14 5z"/>
<path d="M9152 6860 c0 -19 2 -27 5 -17 2 9 2 25 0 35 -3 9 -5 1 -5 -18z"/>
<path d="M7837 6869 c-9 -6 -15 -15 -11 -20 3 -6 12 -5 22 3 13 11 14 11 7 -1
-5 -10 -4 -12 3 -7 13 8 16 36 5 36 -5 0 -16 -5 -26 -11z"/>
<path d="M8810 6871 c0 -7 -4 -10 -9 -7 -5 3 -12 -1 -15 -10 -10 -25 -7 -26
16 -4 12 11 18 23 15 27 -4 3 -7 1 -7 -6z"/>
<path d="M8296 6853 c-6 -14 -5 -15 5 -6 7 7 10 15 7 18 -3 3 -9 -2 -12 -12z"/>
<path d="M8250 6850 c-9 -6 -10 -10 -3 -10 6 0 15 5 18 10 8 12 4 12 -15 0z"/>
<path d="M9021 6852 c0 -7 -5 -11 -10 -8 -4 3 -6 -6 -3 -21 4 -21 6 -23 14 -9
5 9 7 24 5 34 -3 9 -5 11 -6 4z"/>
<path d="M9520 6833 c0 -17 5 -35 10 -38 13 -8 13 35 0 55 -7 11 -10 7 -10
-17z"/>
<path d="M8712 6820 c0 -19 2 -27 5 -17 2 9 2 25 0 35 -3 9 -5 1 -5 -18z"/>
<path d="M8916 6833 c-6 -14 -5 -15 5 -6 7 7 10 15 7 18 -3 3 -9 -2 -12 -12z"/>
<path d="M6745 6830 c-3 -6 1 -13 10 -16 21 -9 26 -2 10 13 -9 8 -16 9 -20 3z"/>
<path d="M9210 6816 c0 -13 -3 -33 -6 -43 -3 -10 2 -7 10 7 18 29 21 60 6 60
-5 0 -10 -11 -10 -24z"/>
<path d="M8615 6821 c-3 -5 -1 -12 5 -16 5 -3 10 1 10 9 0 18 -6 21 -15 7z"/>
<path d="M6795 6810 c-3 -6 1 -7 9 -4 18 7 21 14 7 14 -6 0 -13 -4 -16 -10z"/>
<path d="M8345 6799 c-4 -6 -5 -12 -2 -15 2 -3 7 2 10 11 7 17 1 20 -8 4z"/>
<path d="M8980 6781 c-14 -34 -5 -95 10 -71 6 9 5 17 -2 21 -8 5 -7 16 1 40
14 41 8 49 -9 10z"/>
<path d="M9152 6801 c-8 -4 -12 -18 -10 -31 3 -20 4 -20 15 9 6 17 11 31 10
31 -1 0 -8 -4 -15 -9z"/>
<path d="M9422 6778 c-8 -23 -9 -35 -1 -43 6 -6 10 -6 8 0 -1 6 3 23 9 38 14
33 14 37 4 37 -4 0 -13 -14 -20 -32z"/>
<path d="M6825 6790 c3 -5 8 -10 11 -10 2 0 4 5 4 10 0 6 -5 10 -11 10 -5 0
-7 -4 -4 -10z"/>
<path d="M8124 6777 c1 -21 -3 -23 -43 -26 -18 -1 -38 -41 -20 -41 5 0 9 7 9
15 0 8 7 16 15 16 8 1 20 3 25 4 6 1 17 3 25 4 18 1 20 37 2 44 -9 3 -13 -3
-13 -16z"/>
<path d="M8666 6785 c4 -8 8 -15 10 -15 2 0 4 7 4 15 0 8 -4 15 -10 15 -5 0
-7 -7 -4 -15z"/>
<path d="M8642 6765 c0 -16 2 -22 5 -12 2 9 2 23 0 30 -3 6 -5 -1 -5 -18z"/>
<path d="M6950 6770 c0 -5 5 -10 10 -10 6 0 10 5 10 10 0 6 -4 10 -10 10 -5 0
-10 -4 -10 -10z"/>
<path d="M8620 6741 c0 -16 -6 -32 -12 -34 -7 -3 -4 -6 7 -6 18 -1 20 4 17 34
-5 43 -12 46 -12 6z"/>
<path d="M8691 6753 c-11 -12 -11 -20 0 -45 7 -17 15 -26 17 -20 2 6 -2 21 -8
33 -7 12 -8 19 -2 16 5 -4 17 0 27 7 17 12 17 13 -1 18 -11 3 -26 -1 -33 -9z"/>
<path d="M8280 6745 c0 -8 7 -15 15 -15 8 0 15 7 15 15 0 8 -7 15 -15 15 -8 0
-15 -7 -15 -15z"/>
<path d="M8380 6750 c-13 -8 -13 -11 -1 -22 8 -8 11 -8 7 -1 -3 6 0 13 6 16 7
2 11 7 8 10 -3 3 -12 2 -20 -3z"/>
<path d="M7008 6738 c5 -5 16 -8 23 -6 8 3 3 7 -10 11 -17 4 -21 3 -13 -5z"/>
<path d="M9190 6736 c0 -8 5 -18 10 -21 6 -3 10 1 10 9 0 8 -4 18 -10 21 -5 3
-10 -1 -10 -9z"/>
<path d="M8136 6725 c-3 -8 -1 -15 3 -15 5 0 11 7 15 15 3 8 1 15 -3 15 -5 0
-11 -7 -15 -15z"/>
<path d="M8867 6733 c-4 -3 -7 -11 -7 -17 0 -6 5 -5 12 2 6 6 9 14 7 17 -3 3
-9 2 -12 -2z"/>
<path d="M9330 6724 c0 -8 5 -12 10 -9 6 3 10 10 10 16 0 5 -4 9 -10 9 -5 0
-10 -7 -10 -16z"/>
<path d="M8171 6714 c0 -11 3 -14 6 -6 3 7 2 16 -1 19 -3 4 -6 -2 -5 -13z"/>
<path d="M8405 6720 c-3 -5 -2 -10 4 -10 5 0 13 5 16 10 3 6 2 10 -4 10 -5 0
-13 -4 -16 -10z"/>
<path d="M8647 6719 c7 -7 15 -10 18 -7 3 3 -2 9 -12 12 -14 6 -15 5 -6 -5z"/>
<path d="M9437 6693 c-4 -3 -7 -11 -7 -17 0 -6 5 -5 12 2 6 6 9 14 7 17 -3 3
-9 2 -12 -2z"/>
<path d="M8927 6683 c-4 -3 -7 -11 -7 -17 0 -6 5 -5 12 2 6 6 9 14 7 17 -3 3
-9 2 -12 -2z"/>
<path d="M9431 6613 c-7 -8 -11 -16 -8 -19 2 -2 10 2 17 11 17 20 9 27 -9 8z"/>
</g>
</svg>
